<svg fill="#ebedf0" xmlns="http://www.w3.org/2000/svg" viewBox="0 0 606.3 651.02">
    <g id="Layer_2" data-name="Layer 2">
        <g id="Ñëîé_2" data-name="Ñëîé 2">
            <path d="M265,92.59l-19.38,48.89-27.05,68.25c-.84,2.1-1.64,4.22-2.51,6.31-.05.13-.09.26-.15.39.8-1.83-.14.14-.37.5a8.61,8.61,0,0,1-2.23,2.47c-2.45,1.73-5.19,1.55-7.95.54-4.75-1.74-9.43-3.74-14.13-5.6l-72-28.54L84.38,172c-6.33-2.51-12.62-5.35-19.07-7.55-.3-.11-.59-.24-.89-.36l5,8.72,20.31-51.25q16.18-40.83,32.38-81.66,3.7-9.37,7.42-18.74l-8.71,5L173.3,46.93l77,30.53,10,4c.48.19,2.21,1.11.55.21,4.46,2.43,5.76,6.27,4.07,11-1.29,3.6,1.46,7.75,4.95,8.71,3.94,1.08,7.42-1.33,8.72-5,4.19-11.64-2.14-23.55-13.22-28.07-1.8-.73-3.61-1.43-5.41-2.14L229.22,53.93l-84-33.3-20.68-8.2c-3.82-1.51-7.43,1.72-8.71,4.95L95.5,68.63,63.13,150.29,55.7,169c-1.51,3.83,1.72,7.44,4.95,8.72l46.84,18.57L183,226.26c6,2.39,12,4.84,18.07,7.16A21.85,21.85,0,0,0,222.57,230c3.82-3,5.91-7.11,7.67-11.53q12.24-30.9,24.5-61.81c7.81-19.7,16.31-39.26,23.47-59.21.13-.36.29-.72.43-1.08,1.41-3.56-1.55-7.78-4.95-8.71C269.66,86.53,266.39,89,265,92.59Z" />
            <path d="M389.91,161.87,372,207.05l-11.73,29.6q-1.42,3.58-2.84,7.17c-.24.58-.47,1.16-.7,1.74l-1.56,3.94c-.19.49-.38,1-.58,1.48-.54,1.3.54-.87-.14.24-3.56,5.82-8.1,4.86-13.63,2.67l-14.55-5.77,4.23,10.41C343.88,240.29,335,214,314,206.74A33.8,33.8,0,0,0,285,210.29c-9,5.93-14.17,15.13-15.44,25.73l9-6.83-27-10.7-17.94-7.11c-2.85-1.13-6.45-3.33-9.63-3.33l6.83,9,19.34-48.78,15.8-39.84,11.44-28.86-8.72,4.95,44.64,17.7L378,147.84c2.6,1,5.21,2.08,7.82,3.1l.68.27.11,0c-1.7-.75.45.26.94.61,3.41,2.46,3.65,6.39,2.35,10s1.46,7.76,4.95,8.72c3.93,1.08,7.42-1.34,8.72-5,3.7-10.29-1-22.5-11.05-27.14-1.82-.84-3.72-1.54-5.58-2.28l-25-9.91L290.25,97.89l-17.82-7.07c-3.83-1.51-7.44,1.72-8.72,5l-16,40.26L225,193.47q-3.91,9.9-7.84,19.79c-1.74,4.37,2.63,9,6.83,9-3.22,0-1.18,0,.39.64l6,2.37,18.11,7.17,26.34,10.45c4.75,1.88,8.48-2.8,9-6.84,1.48-12.37,15.06-19.94,26.44-15.61a19.81,19.81,0,0,1,11.19,10.9c2.82,6.92,1.21,14.18-3.11,20.06-3,4.07.44,8.91,4.24,10.41,9.82,3.89,21.49,11,32.23,6.92a22.51,22.51,0,0,0,11.49-9.48,59.26,59.26,0,0,0,3.62-8.47c.72-1.83,1.45-3.67,2.18-5.5l23.82-60.09,7.74-19.52c1.41-3.56-1.55-7.78-4.95-8.72C394.6,155.81,391.33,158.3,389.91,161.87Z" />
            <path d="M473.36,281.93,379.3,244.64,366,239.35l4.95,8.71L397,182.31l3.72-9.38L392,177.88,465.32,207q16.41,6.51,32.82,13c.35.14.71.27,1.05.42l.17.07c-1.78-.79.8.52,1.33.93,3.24,2.51,3.3,6.3,2,9.83-1.92,5.22-4.11,10.37-6.16,15.54l-10.26,25.89c-.77,1.93-1.47,3.9-2.3,5.79-.07.17-.19.36.13-.29.65-1.37-.83,1.4-.78,1.32a7.55,7.55,0,0,1-2.82,2.41c-2.42,1.2-4.54,1-7.14.06-3.6-1.3-7.76,1.46-8.72,4.95-1.08,3.93,1.34,7.41,4.95,8.71A22,22,0,0,0,490.65,292c3.63-2.89,5.7-6.61,7.39-10.84q3.93-9.84,7.81-19.69l9.21-23.24c3.57-9,3.7-18.87-3.68-26.25-3.71-3.71-8.52-5.32-13.25-7.2l-17.63-7-51.32-20.34-33.45-13.26c-3.82-1.52-7.43,1.72-8.71,4.95L361,234.91l-3.72,9.39c-1.51,3.82,1.72,7.43,4.95,8.71l94.06,37.29,13.35,5.29c3.56,1.41,7.78-1.54,8.72-4.95C479.42,286.62,476.93,283.34,473.36,281.93Z" />
            <path d="M570.21,295.82l-65.35-25.91-9.29-3.68,4.95,8.71,13-32.78-8.71,5L570.14,273l9.3,3.68-5-8.71-13,32.79c-1.41,3.55,1.55,7.78,5,8.71,4,1.11,7.3-1.38,8.72-5q6.5-16.39,13-32.78c1.51-3.83-1.72-7.44-4.95-8.72l-65.35-25.91-9.3-3.68c-3.82-1.52-7.43,1.72-8.71,4.95q-6.51,16.4-13,32.79c-1.52,3.82,1.72,7.43,4.95,8.71l65.35,25.91,9.29,3.68c3.56,1.41,7.78-1.54,8.72-5C576.26,300.5,573.78,297.23,570.21,295.82Z" />
            <path d="M575.57,310.7a6,6,0,0,1,1.06-.75c0,.25-2,.36-1.84.35-.52,0-2-.07-1.94-.07s-2.2-.59-.35-.1c.71.19-.43,1.82.5-.16.12-.25.21-.51.31-.77,1.38-3.66,2.89-7.29,4.33-10.93l11.82-29.81c.21-.55.41-1.11.65-1.65.41-.93.1.09,0,.23,0,0-1.55.25-.43.31s-.25,0-.59-.28c.44.3.95.49,1.37.82.1.08,1,1,1.25,1.24,1,.62.14.85.5-.46-2.41,8.81,11.25,12.57,13.67,3.77C609.49,259.17,590.1,247,580.07,257c-3.64,3.64-5.29,10.24-7.16,14.94l-8.7,22c-1.62,4.08-3.54,8.15-4.88,12.32a13.86,13.86,0,0,0,9.91,17.67c6.34,1.61,15.27.28,18.57-6,4.22-8.08-8-15.25-12.24-7.15Z" />
            <path d="M115.82,17.38,95.5,68.63,63.13,150.29,55.7,169l8.72-4.95L34,152,39,160.75l20.31-51.24q16.2-40.85,32.38-81.67,3.7-9.37,7.43-18.74l-8.72,5,30.4,12.05c3.55,1.41,7.78-1.54,8.71-5,1.11-4-1.37-7.3-4.95-8.72L94.14.39C90.31-1.13,86.7,2.1,85.42,5.33L65.11,56.58,32.73,138.24Q29,147.62,25.31,157c-1.52,3.83,1.71,7.44,4.94,8.72l30.4,12.05c3.83,1.51,7.44-1.72,8.72-4.95l20.31-51.25q16.18-40.83,32.38-81.66,3.7-9.37,7.42-18.74c1.41-3.56-1.54-7.78-4.95-8.72C120.5,11.33,117.23,13.81,115.82,17.38Z" />
            <path d="M83.07,11.26Q73.71,34.9,64.34,58.52L34.49,133.81q-3.42,8.63-6.83,17.24l10.4-4.23c-20.21-12.43-26.48-38.88-23-61.1,3.86-24.39,17.91-48.06,40-60,10.25-5.57,22.06-8,33-5.7a7.27,7.27,0,0,0,8.72-5c1-3.51-1.19-7.94-4.95-8.72C64.7.7,38.22,14.88,21.75,35.94,3,59.88-5.47,93.27,3.73,122.77c4.64,14.88,13.8,28.06,27.18,36.28,4.25,2.62,8.79-.13,10.41-4.23q9.38-23.62,18.74-47.26Q75,69.91,89.9,32.27L96.74,15c1.41-3.56-1.55-7.78-4.95-8.72C87.76,5.21,84.49,7.69,83.07,11.26Z" />
            <path d="M322.79,238.74A19.62,19.62,0,0,1,285,246.25c-6.44-15.51,9.11-31.42,24.71-26a19.81,19.81,0,0,1,13,18.49c.16,9.11,14.33,9.13,14.17,0-.23-12.66-7.23-24.63-18.75-30.23a34.2,34.2,0,0,0-36.9,4.56,33.83,33.83,0,0,0-10.16,36.28c4.82,13.93,18.34,23.81,33.28,23.12A34.23,34.23,0,0,0,337,238.74C337.16,229.61,323,229.62,322.79,238.74Z" />
            <path d="M288.61,422.74h29.17l-7.08-7.09V643.93l7.08-7.09H288.61l7.08,7.09V415.65c0-9.12-14.17-9.13-14.17,0V643.93a7.19,7.19,0,0,0,7.09,7.08h29.17a7.19,7.19,0,0,0,7.09-7.08V415.65a7.19,7.19,0,0,0-7.09-7.08H288.61C279.49,408.57,279.47,422.74,288.61,422.74Z" />
            <path d="M430.53,636.84H403.22l6.83,5.2-8.43-22.6-20.4-54.64L356.66,499Q346,470.52,335.4,442l-7-18.89c-1.1-2.95-2-6.16-3.36-9a2.58,2.58,0,0,1-.14-.39l-6.84,9h29.63q-3.4-2.61-6.83-5.2l8.24,22.68,19.78,54.49,23.94,65.93,20.7,57c3.36,9.25,6.58,18.56,10.08,27.75.05.13.1.27.14.4,1.31,3.6,4.82,6,8.72,5,3.47-1,6.26-5.1,4.95-8.72l-8.24-22.68q-9.89-27.25-19.78-54.49L385.4,498.94l-20.7-57c-3.36-9.25-6.58-18.56-10.08-27.75-.05-.14-.1-.27-.14-.4a7.33,7.33,0,0,0-6.84-5.2H318c-4.27,0-8.47,4.58-6.83,9l8.44,22.6q10.2,27.32,20.39,54.64l24.57,65.81q10.62,28.47,21.25,56.95c3.47,9.29,6.82,18.63,10.41,27.87l.15.4c1.1,3,3.52,5.2,6.83,5.2h27.31C439.65,651,439.66,636.84,430.53,636.84Z" />
            <path d="M258.75,422.74h29.63l-6.84-9-8.43,22.6L252.71,491q-12.28,32.91-24.56,65.81-10.64,28.47-21.26,56.95l-7,18.9c-1.11,3-2.5,5.94-3.36,9,0,.13-.1.26-.14.39l6.83-5.2h-27.3l6.83,9q4.13-11.34,8.24-22.69l19.78-54.48,23.94-65.94,20.7-57c3.34-9.18,7.35-18.37,10.08-27.75,0-.13.1-.26.14-.39,1.31-3.6-1.47-7.76-4.95-8.72-3.94-1.08-7.4,1.34-8.71,4.95l-8.24,22.68q-9.88,27.26-19.78,54.49L200,556.88q-10.35,28.5-20.71,57c-3.33,9.17-7.34,18.36-10.07,27.75,0,.13-.1.26-.15.39-1.59,4.4,2.53,9,6.84,9h27.3c3.34,0,5.73-2.24,6.83-5.2l8.44-22.6q10.2-27.33,20.39-54.64l24.57-65.81,21.25-56.95c3.44-9.21,7.6-18.44,10.41-27.88,0-.13.1-.26.15-.39,1.64-4.39-2.56-9-6.83-9H258.75C249.63,408.57,249.62,422.74,258.75,422.74Z" />
            <path d="M310.69,261.08V357.3l7.09-7.08H288.61l7.08,7.08V261.08L285,267.2a34.32,34.32,0,0,0,36.33,0c7.72-4.82.61-17.09-7.16-12.24a20.15,20.15,0,0,1-22,0c-4.6-2.87-10.66.86-10.66,6.12V357.3a7.19,7.19,0,0,0,7.09,7.09h29.17a7.19,7.19,0,0,0,7.08-7.09V261.08C324.86,252,310.69,251.94,310.69,261.08Z" />
            <path d="M351.22,357.31v29.17l7.08-7.09H248.09l7.09,7.09V357.31l-7.09,7.08H358.3c9.12,0,9.14-14.17,0-14.17H248.09a7.19,7.19,0,0,0-7.08,7.09v29.17a7.18,7.18,0,0,0,7.08,7.08H358.3a7.19,7.19,0,0,0,7.09-7.08V357.31C365.39,348.19,351.22,348.17,351.22,357.31Z" />
            <path d="M362.06,386.48v29.17l7.09-7.08H237.24l7.09,7.08V386.48l-7.09,7.08H369.15c9.11,0,9.13-14.17,0-14.17H237.24a7.19,7.19,0,0,0-7.08,7.09v29.17a7.19,7.19,0,0,0,7.08,7.09H369.15a7.19,7.19,0,0,0,7.08-7.09V386.48C376.23,377.36,362.06,377.34,362.06,386.48Z" />
        </g>
    </g>
</svg>