<svg fill="#ccc" xmlns="http://www.w3.org/2000/svg" viewBox="0 0 650.86 485.8">
    <defs>
        <style>.cls-1{fill:#fff;}</style>
    </defs>
    <g id="Layer_2" data-name="Layer 2">
        <g id="Ñëîé_2" data-name="Ñëîé 2">
            <path d="M271.38,143.23l-54.66-47.4L209,89.13c-2.89-2.51-7.18-2.84-10,0-2.56,2.56-2.91,7.5,0,10l54.66,47.4,7.73,6.7c2.89,2.5,7.18,2.84,10,0,2.56-2.56,2.91-7.5,0-10Z" />
            <path d="M360.77,220.73l-55.52-48.15-7.79-6.75c-2.89-2.5-7.18-2.84-10,0-2.56,2.56-2.9,7.51,0,10L343,224l7.79,6.75c2.89,2.51,7.18,2.84,10,0,2.56-2.56,2.9-7.5,0-10Z" />
            <path d="M372.19,326.48l1.2-57.89c.18-9.12-14-9.12-14.18,0q-.58,28.95-1.19,57.89c-.19,9.13,14,9.13,14.17,0Z" />
            <path d="M574.43,288.7l-60-17.54-94.91-27.74L397.56,237c-8.77-2.56-12.52,11.11-3.77,13.67l60,17.54L548.76,296l21.9,6.4c8.78,2.56,12.52-11.11,3.77-13.67Z" />
            <path d="M510.38,397.74l-40.87-14.87-65.15-23.69-15-5.45c-3.59-1.3-7.76,1.47-8.71,4.95-1.09,3.95,1.34,7.41,4.95,8.72l40.86,14.87L491.65,406l15,5.45c3.6,1.3,7.76-1.47,8.71-5,1.09-3.95-1.33-7.41-4.94-8.72Z" />
            <path class="cls-1" d="M360,380.36c-.56-6.83-3.14-13.37-8.37-18-1.72-1.53-3.63-2.87-5.44-4.29l-14.1-11Q330.52,353,329,358.89L345.47,355c8.34-2,15.92-4.2,21.31-11.56,2.54-3.46,4.33-7.63,6.34-11.44l9.9-18.76q3.69-7,7.39-14l-13.2-3.57L379,330c.22,4.18.34,8.38.66,12.56.71,9.42,5.51,15.83,12.65,21.41l15.25,11.92L410.7,364l-16.51,3.88c-8.33,2-15.92,4.19-21.3,11.55-2.6,3.55-4.42,7.79-6.46,11.66L356,410.83l-6.78,12.85,13.21,3.58L360,380.36c-.48-9.07-14.65-9.13-14.17,0l2.46,46.9c.35,6.63,9.75,10.14,13.21,3.58l15.28-29c2.15-4.09,4.24-8.22,6.47-12.26,2.94-5.36,7.52-6.34,12.94-7.61l18.29-4.3c4.79-1.13,7.37-8.53,3.13-11.84L404.75,355.8c-4.63-3.61-10.2-6.86-10.9-13.25-1.2-10.9-1.16-22.08-1.74-33q-.36-6.93-.73-13.85c-.35-6.63-9.74-10.14-13.2-3.58l-15.69,29.73-5.25,10c-1.85,3.52-3.91,6.48-7.9,7.74-1.9.61-3.92,1-5.86,1.41l-18.3,4.3c-4.78,1.12-7.36,8.53-3.12,11.84s8.4,6.56,12.59,9.85c4.59,3.58,10.65,7,11.17,13.44.31,3.82,3,7.09,7.08,7.09C356.5,387.45,360.3,384.2,360,380.36Z" />
            <path d="M397.07,361c-4.11,1-8.32,1.77-12.39,2.93a32.17,32.17,0,0,0-19.35,15.63c-4.09,7.51-8,15.14-12,22.7l13.21,3.58c-.45-8.54-.78-17.1-1.35-25.63s-4-16.88-10.61-22.58c-3.22-2.76-6.69-5.25-10-7.86l-3.12,11.84c4.12-1,8.32-1.78,12.39-2.93,9-2.55,15.75-8.79,20-16.92.48-.9,1-1.79,1.43-2.7,2.39-5-1.05,1.73.41-.78,1.15-2,2.15-4.08,3.22-6.11q3.12-5.91,6.23-11.82L372,316.8c.45,8.51.83,17,1.35,25.54s3.94,16.92,10.56,22.63c3.22,2.78,6.71,5.28,10.07,7.9,3,2.36,7.08,2.94,10,0,2.45-2.45,3-7.65,0-10s-6.16-4.72-9.16-7.16a18.71,18.71,0,0,1-7.36-14.11c-.47-8.26-.87-16.52-1.31-24.78-.35-6.63-9.74-10.14-13.2-3.58l-5.76,10.91q-1.64,3.12-3.29,6.24c-.25.48-.53,1-.76,1.45a12.33,12.33,0,0,0-.77,1.8c.86-2.82.66-1.53.17-.66-1.34,2.37-2.38,4.86-4.21,6.92a18,18,0,0,1-9.26,5.43c-3.77,1-7.58,1.78-11.37,2.67-4.79,1.12-7.36,8.53-3.13,11.84,7.4,5.78,15.93,10.76,16.52,21.12.47,8.31.88,16.62,1.31,24.93.35,6.63,9.75,10.14,13.21,3.58,3.88-7.36,7.73-14.74,11.64-22.09,2.74-5.13,6.58-8.56,12.3-10,3.75-1,7.54-1.77,11.3-2.66C409.71,372.61,406,358.94,397.07,361Z" />
            <path d="M584.05,323.05l-41.8,63.62-6,9.14c-5,7.64,7.25,14.75,12.24,7.15l41.8-63.62,6-9.14c5-7.64-7.25-14.75-12.24-7.15Z" />
            <path d="M166.1,74.17l-84.34-8.3L69.89,64.71c-3.82-.38-7.09,3.52-7.09,7.08,0,4.15,3.26,6.71,7.09,7.09l84.34,8.29,11.87,1.17c3.82.38,7.09-3.53,7.09-7.09,0-4.14-3.26-6.71-7.09-7.08Z" />
            <path class="cls-1" d="M180.34,102.3c-.56-6.83-3.14-13.37-8.37-18-1.72-1.52-3.63-2.87-5.44-4.28l-14.1-11-3.12,11.84L165.82,77c8.34-2,15.93-4.19,21.31-11.55,2.59-3.55,4.42-7.79,6.46-11.66L204,34l6.78-12.85-13.2-3.58,1.8,34.31c.22,4.19.35,8.39.67,12.56.7,9.43,5.52,15.84,12.65,21.41L227.92,97.8q1.56-5.91,3.13-11.84l-16.5,3.88c-8.39,2-16,4.25-21.39,11.66-2.57,3.52-4.36,7.72-6.39,11.55q-5.19,9.86-10.39,19.72l-6.78,12.85,13.21,3.58q-1.25-23.46-2.47-46.9c-.48-9.08-14.65-9.13-14.17,0l2.46,46.9c.35,6.63,9.75,10.14,13.21,3.57q7.64-14.49,15.28-29c2.15-4.08,4.24-8.21,6.46-12.26,2.93-5.32,7.55-6.34,12.95-7.61l18.29-4.29c4.78-1.13,7.36-8.54,3.12-11.85l-12.84-10c-4.62-3.62-10.2-6.87-10.9-13.26-1.2-10.9-1.16-22.08-1.74-33q-.36-6.91-.73-13.85C211.38,11,202,7.46,198.52,14L183.25,43c-2.16,4.09-4.25,8.22-6.47,12.26-2.94,5.36-7.53,6.35-12.95,7.62l-18.29,4.3c-4.79,1.12-7.37,8.53-3.13,11.84L155,88.85c4.58,3.58,10.63,7,11.16,13.45.31,3.81,3,7.08,7.08,7.08C176.84,109.38,180.65,106.13,180.34,102.3Z" />
            <path d="M218,83.09c-4,.93-8,1.76-12,2.82a32,32,0,0,0-19.83,15.82c-4,7.51-8,15.08-11.94,22.62l13.21,3.58c-.45-8.54-.82-17.09-1.35-25.63-.56-9-4.34-17.48-11.42-23.25-3-2.45-6.14-4.79-9.21-7.19L162.38,83.7c4.12-1,8.32-1.77,12.39-2.93a32.19,32.19,0,0,0,19.35-15.64c4.09-7.5,8-15.13,12-22.69l-13.21-3.58c.45,8.51.83,17,1.35,25.54s4,16.92,10.57,22.63c3.22,2.78,6.71,5.28,10.06,7.9,3,2.36,7.08,2.94,10,0,2.45-2.45,3-7.65,0-10s-6.15-4.72-9.15-7.16a18.76,18.76,0,0,1-7.37-14.11c-.46-8.26-.87-16.52-1.3-24.78-.35-6.63-9.75-10.14-13.21-3.58C190,42.64,186.12,50,182.21,57.36c-2.73,5.12-6.56,8.56-12.26,10-3.76,1-7.56,1.78-11.34,2.67-4.79,1.12-7.37,8.53-3.13,11.84,3,2.3,5.91,4.58,8.83,6.9C169,92.48,171.66,97,172,103c.47,8.31.87,16.62,1.31,24.93.35,6.63,9.74,10.14,13.2,3.58,3.86-7.32,7.69-14.65,11.58-22,2.75-5.18,6.56-8.66,12.35-10.14,3.75-1,7.54-1.77,11.31-2.66C230.63,94.67,226.87,81,218,83.09Z" />
            <path class="cls-1" d="M40.07,91.77c-.56-6.83-3.15-13.36-8.37-18-1.72-1.52-3.63-2.87-5.44-4.29l-14.1-11L9,70.31l16.51-3.88c8.34-2,15.92-4.2,21.31-11.55,2.59-3.55,4.41-7.79,6.46-11.66q5.19-9.87,10.39-19.72l6.78-12.85L57.29,7.08l1.8,34.31c.22,4.19.35,8.39.66,12.57.7,9.25,5.4,15.73,12.41,21.21L87.65,87.28q1.56-5.93,3.13-11.84L74.27,79.32c-8.33,2-15.92,4.19-21.31,11.54-2.59,3.55-4.41,7.79-6.46,11.67L36.11,122.24,29.33,135.1l13.2,3.57-2.46-46.9c-.48-9.07-14.66-9.12-14.18,0q1.24,23.46,2.47,46.9c.35,6.63,9.74,10.14,13.21,3.58q7.63-14.49,15.28-29c2.15-4.08,4.24-8.21,6.46-12.26,2.94-5.35,7.53-6.34,13-7.61l18.28-4.3c4.79-1.12,7.37-8.53,3.13-11.84L84.8,67.2C80.21,63.61,74.6,60.33,73.93,54c-1.16-10.92-1.17-22.08-1.74-33Q71.82,14,71.46,7.08C71.11.45,61.71-3.06,58.25,3.5Q50.61,18,43,32.47c-2.15,4.09-4.24,8.22-6.46,12.26-2.94,5.35-7.53,6.34-12.95,7.62L5.27,56.64C.48,57.77-2.1,65.17,2.14,68.49l12.6,9.84c4.58,3.58,10.63,7,11.15,13.44.31,3.82,3,7.09,7.09,7.09C36.57,98.86,40.38,95.61,40.07,91.77Z" />
            <path d="M77.71,72.57c-4.12,1-8.31,1.77-12.38,2.93A32.16,32.16,0,0,0,46,91.13c-4.09,7.51-8,15.14-12,22.7l13.21,3.58c-.45-8.52-.83-17-1.35-25.55S41.92,74.94,35.29,69.23c-3.22-2.77-6.71-5.27-10.06-7.89q-1.56,5.93-3.13,11.84c4.13-1,8.33-1.77,12.4-2.93A32.19,32.19,0,0,0,53.85,54.61c4.09-7.5,8-15.13,12-22.7L52.61,28.34c.45,8.54.78,17.09,1.35,25.62.59,8.74,4.09,17.12,10.92,22.84,3.14,2.64,6.47,5.08,9.71,7.61,3,2.35,7.08,2.94,10,0,2.45-2.45,3-7.65,0-10C77.22,68.61,68.69,63.63,68.1,53.26c-.48-8.3-.88-16.61-1.32-24.92-.35-6.63-9.74-10.14-13.2-3.58C49.7,32.12,45.85,39.5,41.94,46.84c-2.73,5.12-6.56,8.56-12.26,10-3.76,1-7.56,1.78-11.34,2.67-4.79,1.12-7.37,8.53-3.13,11.84,3.05,2.38,6.15,4.72,9.16,7.16a18.71,18.71,0,0,1,7.36,14.1c.46,8.26.87,16.53,1.3,24.79.35,6.63,9.75,10.14,13.21,3.58,3.88-7.37,7.73-14.74,11.64-22.09,2.73-5.12,6.56-8.55,12.26-10,3.76-1,7.56-1.78,11.34-2.67C90.36,84.14,86.6,70.48,77.71,72.57Z" />
            <path class="cls-1" d="M272.18,177.13c-.55-6.84-3.14-13.37-8.37-18-1.72-1.52-3.62-2.87-5.43-4.29l-14.09-11q-1.57,5.91-3.13,11.84l16.5-3.88c8.34-2,15.94-4.19,21.32-11.55,2.59-3.55,4.41-7.79,6.45-11.66q5.2-9.85,10.4-19.72L302.61,96,289.4,92.42q.92,17.16,1.81,34.32c.22,4.19.35,8.39.66,12.57.71,9.42,5.52,15.83,12.65,21.4l15.25,11.92q1.58-5.92,3.13-11.84l-16.51,3.88c-7.6,1.78-14.88,3.63-20.12,10-3.15,3.84-5.21,8.57-7.51,12.94L268.38,207.3l-6.93,13.15,13.2,3.57q-1.23-23.45-2.47-46.89c-.47-9.08-14.65-9.13-14.17,0q1.25,23.44,2.47,46.89c.35,6.64,9.74,10.14,13.2,3.58l15.44-29.26c2.12-4,4.16-8.11,6.37-12.09,2.92-5.26,7.52-6.24,12.88-7.5l18.3-4.3c4.78-1.12,7.36-8.53,3.13-11.84l-12.86-10.05c-4.62-3.61-10.19-6.86-10.9-13.24-1.2-10.91-1.16-22.09-1.73-33q-.37-6.93-.73-13.86c-.35-6.63-9.75-10.14-13.21-3.57q-7.64,14.49-15.28,29c-2.15,4.08-4.24,8.21-6.46,12.26-2.94,5.35-7.54,6.33-12.95,7.61L237.39,142c-4.78,1.13-7.36,8.53-3.12,11.85l12.58,9.84c4.58,3.58,10.64,7,11.16,13.45.31,3.81,3,7.08,7.09,7.08C268.69,184.21,272.5,181,272.18,177.13Z" />
            <path d="M309.83,157.92c-7.16,1.68-14.63,2.82-21,6.8l5.46-.71c-6.86-1.51-13.21,7-16.11,12.22-1.14,2.08-2.21,4.21-3.32,6.31q-4.39,8.33-8.78,16.64l13.21,3.58c-.45-8.51-.83-17-1.35-25.55s-4-16.92-10.57-22.63c-3.22-2.77-6.71-5.27-10.06-7.89q-1.56,5.92-3.13,11.84c4.09-1,8.23-1.77,12.27-2.9A32.1,32.1,0,0,0,286,140c4.1-7.51,8-15.14,12-22.71l-13.21-3.57c.45,8.51.83,17,1.34,25.54s3.95,16.93,10.57,22.63c3.23,2.78,6.72,5.28,10.07,7.9,3,2.35,7.08,2.94,10,0,2.45-2.45,3-7.65,0-10s-6.16-4.72-9.16-7.16a18.71,18.71,0,0,1-7.36-14.11c-.47-8.26-.87-16.52-1.31-24.78-.35-6.63-9.74-10.14-13.2-3.58-3.88,7.36-7.74,14.74-11.65,22.09-2.72,5.11-6.56,8.56-12.25,10-3.77,1-7.57,1.78-11.34,2.67-4.79,1.12-7.37,8.53-3.13,11.84,3,2.38,6.15,4.72,9.15,7.16a18.72,18.72,0,0,1,7.37,14.1c.46,8.26.87,16.53,1.3,24.79.35,6.63,9.75,10.14,13.21,3.58l7.53-14.29c2.74-5.2,5.16-11.62,10.13-15.09l-5.46.71c4,.87,6.41-1.76,9.87-2.91,1.38-.46,2.84-.75,4.26-1.09l8.91-2.09C322.48,169.5,318.72,155.83,309.83,157.92Z" />
            <path class="cls-1" d="M591.11,320c-.56-6.83-3.14-13.37-8.37-18-2.39-2.12-5-4-7.56-5.95l-12-9.37q-1.56,5.92-3.13,11.85l16.5-3.88c8.34-2,15.93-4.19,21.31-11.54,2.6-3.55,4.42-7.8,6.46-11.67l10.4-19.72,6.77-12.85-13.2-3.58,1.8,34.33c.22,4.18.35,8.38.67,12.56.7,9.42,5.52,15.83,12.65,21.4l15.24,11.92q1.57-5.93,3.13-11.84l-16.5,3.88c-8.34,2-15.93,4.19-21.31,11.55-2.6,3.55-4.42,7.79-6.46,11.66l-10.4,19.72-6.78,12.85,13.2,3.58L591.11,320c-.48-9.08-14.65-9.13-14.17,0l2.46,46.9c.35,6.63,9.75,10.14,13.21,3.57l15.28-29c2.15-4.08,4.24-8.21,6.47-12.26,2.94-5.35,7.53-6.33,12.94-7.61l18.29-4.3c4.78-1.12,7.36-8.53,3.12-11.84l-12.84-10c-4.62-3.62-10.2-6.87-10.9-13.25-1.2-10.9-1.16-22.09-1.74-33q-.36-6.93-.73-13.86c-.35-6.63-9.74-10.14-13.2-3.57q-7.65,14.49-15.28,29c-2.16,4.08-4.25,8.21-6.47,12.26-2.94,5.35-7.53,6.34-12.94,7.61l-18.29,4.29c-4.79,1.13-7.36,8.53-3.12,11.85L563.83,305c5,3.91,12.54,8,13.11,15,.31,3.81,3,7.08,7.08,7.08C587.62,327,591.42,323.79,591.11,320Z" />
            <path d="M628.76,300.75c-4.12,1-8.32,1.78-12.39,2.93A32.17,32.17,0,0,0,597,319.31c-4.1,7.51-8,15.14-12,22.7l13.2,3.58q-.64-12.21-1.28-24.42c-.48-9-3.61-17.7-10.63-23.75-1.72-1.48-3.57-2.83-5.36-4.22s-4.36-4-6.55-4.5l3.13,1.82-1.29-1-3.12,11.84c4.12-1,8.32-1.77,12.39-2.93a32.17,32.17,0,0,0,19.35-15.63c4.1-7.51,8-15.14,12-22.7l-13.2-3.58c.44,8.54.77,17.1,1.34,25.63s4,16.88,10.61,22.58c3.22,2.76,6.69,5.25,10,7.86,3,2.36,7.08,2.94,10,0,2.45-2.45,3-7.65,0-10-7.39-5.78-15.92-10.76-16.51-21.12-.47-8.31-.88-16.62-1.31-24.93-.35-6.63-9.75-10.14-13.21-3.58-3.88,7.36-7.73,14.74-11.64,22.09-2.73,5.11-6.56,8.55-12.25,10-3.77,1-7.57,1.78-11.35,2.67-4.79,1.12-7.36,8.53-3.13,11.84,1.36,1.06,2.7,2.45,4.42,2.83l-3.13-1.82c3.06,2.39,6.29,4.66,9.19,7.26,5,4.51,5.89,10,6.22,16.36q.57,10.71,1.13,21.42c.35,6.63,9.74,10.14,13.2,3.58,3.88-7.36,7.74-14.74,11.65-22.09,2.72-5.12,6.56-8.55,12.26-10,3.76-1,7.56-1.78,11.34-2.67C641.4,312.33,637.64,298.66,628.76,300.75Z" />
            <path class="cls-1" d="M359.69,255.4c-.56-6.83-3.15-13.37-8.37-18-1.72-1.53-3.63-2.88-5.44-4.29l-14.1-11-3.12,11.84,16.51-3.88c8.49-2,16.15-4.32,21.55-11.89,2.47-3.47,4.24-7.57,6.22-11.32l10.39-19.71,6.78-12.85L376.9,170.7q.92,17.16,1.81,34.32c.22,4.18.35,8.38.66,12.56.71,9.42,5.52,15.83,12.66,21.41l15.24,11.91q1.56-5.91,3.13-11.84L393.84,243h3.76c-2.88-.63-6.07.55-8.89,1.21a27.55,27.55,0,0,0-10.53,4.68c-5.66,4.25-8.39,10.35-11.59,16.42l-11.73,22.25L349,298.72l13.2,3.58-2.46-46.9c-.48-9.07-14.66-9.13-14.18,0q1.25,23.44,2.47,46.9c.35,6.63,9.74,10.14,13.2,3.57q7.71-14.6,15.4-29.2c2-3.74,3.93-7.5,5.93-11.23,1.74-3.28,3.85-5.83,7.51-7,2.46-.79,5.07-1.22,7.58-1.81h-3.77c3.45.76,7.71-.92,11.05-1.71l9.28-2.18c4.79-1.13,7.37-8.53,3.13-11.85l-12.84-10c-4.63-3.61-10.2-6.87-10.91-13.26-1.2-10.9-1.16-22.08-1.73-33q-.37-6.93-.73-13.86c-.35-6.63-9.75-10.14-13.21-3.58l-15.12,28.69c-2.2,4.16-4.35,8.34-6.59,12.48-2.9,5.36-7.57,6.41-13,7.68l-18.29,4.3c-4.79,1.12-7.37,8.53-3.13,11.84l12.6,9.84c4.58,3.59,10.63,7,11.15,13.45.31,3.81,3,7.08,7.09,7.08C356.19,262.48,360,259.23,359.69,255.4Z" />
            <path d="M397.33,236.19l-3.54.83h3.77c-2.75-.6-5.66.44-8.33,1.07a49.2,49.2,0,0,0-7.25,2.08c-7.7,3.08-13.28,8.7-17.11,16l-3.69,7c-.33.61-.67,1.21-1,1.83-2.19,4.57.12.29,0,.1a5.1,5.1,0,0,1-.38.72c-2.21,3.79-4.11,7.8-6.16,11.68L366.83,281c-.45-8.51-.83-17-1.35-25.54s-3.94-16.92-10.57-22.63c-3.22-2.78-6.71-5.28-10.06-7.9q-1.56,5.92-3.13,11.84c4-.93,8-1.75,12-2.82a32,32,0,0,0,19.82-15.82c4-7.51,8-15.08,11.94-22.62L372.23,192c.45,8.51.83,17,1.35,25.54s3.94,16.93,10.57,22.64c3.22,2.77,6.71,5.27,10.06,7.89,3,2.36,7.08,2.94,10,0,2.45-2.45,3-7.65,0-10s-6.15-4.71-9.16-7.16a18.73,18.73,0,0,1-7.36-14.11c-.46-8.26-.87-16.52-1.31-24.78-.35-6.63-9.74-10.14-13.2-3.57-3.86,7.31-7.69,14.64-11.58,21.94-2.75,5.18-6.56,8.67-12.34,10.15-3.76,1-7.55,1.77-11.32,2.66-4.79,1.12-7.37,8.53-3.13,11.84,3.05,2.39,6.15,4.72,9.16,7.16a18.75,18.75,0,0,1,7.36,14.11c.46,8.26.87,16.52,1.3,24.78.35,6.63,9.75,10.14,13.21,3.58q2.82-5.37,5.65-10.72c.3-.56.62-1.11.89-1.68,2.44-5.15-.82,1.19.3-.58s2.1-4,3.13-5.94c2.48-4.69,4.77-9.13,9.74-11.68,3.61-1.85,8.06-2.4,12-3.32h-3.76c2.48.54,4.91-.27,7.31-.83C410,247.77,406.22,234.1,397.33,236.19Z" />
            <path class="cls-1" d="M520.56,431.83c-.56-6.83-3.14-13.37-8.37-18-1.72-1.52-3.62-2.87-5.43-4.28l-14.1-11q-1.56,5.93-3.13,11.84L506,406.48c8.34-2,15.93-4.19,21.31-11.54,2.6-3.55,4.42-7.79,6.46-11.67l10.4-19.72L551,350.7l-13.21-3.57q.9,17,1.79,34c.23,4.27.36,8.57.68,12.84.7,9.46,5.51,15.86,12.65,21.44l15.26,11.92,3.12-11.84-16.51,3.88c-8.34,2-15.93,4.19-21.31,11.55-2.6,3.55-4.42,7.79-6.46,11.66L516.6,462.3q-3.39,6.42-6.77,12.84l13.2,3.58q-1.23-23.45-2.47-46.89c-.48-9.07-14.65-9.13-14.17,0q1.23,23.44,2.47,46.89c.35,6.63,9.74,10.14,13.2,3.58l15.28-29c2.16-4.09,4.24-8.22,6.47-12.26,2.94-5.36,7.53-6.34,13-7.62l18.29-4.29c4.79-1.13,7.37-8.53,3.13-11.85l-12.6-9.84c-4.66-3.65-10.47-7-11.16-13.46-1.16-10.91-1.16-22.07-1.74-33q-.36-6.93-.73-13.85c-.34-6.64-9.74-10.15-13.2-3.58l-15.28,29c-2.16,4.08-4.24,8.21-6.47,12.26-2.94,5.35-7.53,6.34-12.94,7.61l-18.29,4.3c-4.79,1.12-7.37,8.53-3.13,11.84l12.59,9.84c4.59,3.59,10.64,7,11.16,13.45.31,3.82,3,7.09,7.08,7.09C517.07,438.92,520.87,435.67,520.56,431.83Z" />
            <path d="M558.22,412.62c-4.13,1-8.32,1.77-12.4,2.93a32.19,32.19,0,0,0-19.35,15.64c-4.1,7.5-8,15.13-12,22.7l13.2,3.57c-.45-8.51-.82-17-1.34-25.54s-3.94-16.92-10.57-22.63c-3.22-2.78-6.71-5.28-10.06-7.9q-1.56,5.92-3.13,11.84l7.78-1.82h-3.77c5.79,1.27,14-2.74,18.39-6a36.18,36.18,0,0,0,10.36-12.65L546.31,372l-13.2-3.58c.44,8.48.81,17,1.34,25.44.54,8.85,4.07,17.31,11,23.08,3.14,2.61,6.44,5,9.65,7.55,3,2.36,7.08,2.94,10,0,2.45-2.45,3-7.65,0-10s-6.15-4.72-9.16-7.16A18.83,18.83,0,0,1,548.58,393c-.47-8.21-.87-16.41-1.3-24.62-.35-6.63-9.74-10.14-13.2-3.58q-5,9.39-9.91,18.78c-1.32,2.51-2.53,5.32-4.37,7.49-3.51,4.18-8.11,5.47-13.19,6.66h3.77c-3.61-.79-8,1-11.55,1.83-4.78,1.12-7.36,8.53-3.12,11.84,3.05,2.39,6.15,4.72,9.16,7.16a18.75,18.75,0,0,1,7.36,14.11c.46,8.26.87,16.52,1.3,24.78.35,6.63,9.74,10.14,13.21,3.58,3.88-7.36,7.73-14.74,11.64-22.08,2.72-5.12,6.56-8.56,12.26-10,3.76-1,7.56-1.78,11.34-2.67C570.86,424.2,567.1,410.53,558.22,412.62Z" />
        </g>
    </g>
</svg>