<svg fill="#ebedf0" xmlns="http://www.w3.org/2000/svg" viewBox="0 0 680.84 526.05">
    <g id="Layer_2" data-name="Layer 2">
        <g id="Ñëîé_2" data-name="Ñëîé 2">
            <path d="M119.77,511.76H56.26c-2.87,0-6.19.51-8.42-1.41-5.48-4.73,0-16,3.66-20.37A25.35,25.35,0,0,1,71,481c4.22-.05,8.45,0,12.67,0h36.15l-7.09-7.09v44.93c0,9.12,14.17,9.14,14.17,0V473.91a7.19,7.19,0,0,0-7.08-7.09H85.55c-4.85,0-9.69,0-14.54,0A40.13,40.13,0,0,0,44.41,477c-8,7.17-13.26,18.52-12.77,29.37.49,11.08,9.29,19.28,20.26,19.56s21.85,0,32.76,0h35.11C128.89,525.93,128.9,511.76,119.77,511.76Z" />
            <path d="M211.07,511.76H143l7.09,7.08V473.91L143,481h33.89c4.91,0,9.82,0,14.73,0a25.37,25.37,0,0,1,20.25,9.69c3.67,4.83,9.88,20.68-.76,21.07-9.09.33-9.13,14.51,0,14.17,7.15-.26,13.92-3.8,17.46-10.19,3.25-5.86,3-12.66,1.5-19-3-12.77-12.6-23-24.74-27.59-6.44-2.42-13.14-2.32-19.88-2.32H143a7.18,7.18,0,0,0-7.08,7.08v44.93a7.19,7.19,0,0,0,7.08,7.09h68.11C220.19,525.93,220.21,511.76,211.07,511.76Z" />
            <path d="M70.31,289.82v-35.1c0-9.12-14.18-9.14-14.18,0v35.1c0,9.12,14.18,9.14,14.18,0Z" />
            <path d="M70.31,289.82v-35.1c0-9.12-14.18-9.14-14.18,0v35.1c0,9.12,14.18,9.14,14.18,0Z" />
            <path d="M70.31,289.82v-35.1c0-9.12-14.18-9.14-14.18,0v35.1c0,9.12,14.18,9.14,14.18,0Z" />
            <path d="M308.88,286.53c9.11,0,9.13-14.17,0-14.17s-9.14,14.17,0,14.17Z" />
            <path d="M48.71,341.35c-.69,4.79-.85,10.17-2.5,14.74A16.56,16.56,0,0,1,14.3,353a18.28,18.28,0,0,1-.11-3.39c.05-1.16.12-1.82,0-.82.11-.93.27-1.87.41-2.8.34-2.36.67-4.72,1-7.07l-6.83,5.2,46.76,6.25c3.8.51,7.09-3.62,7.09-7.08,0-4.25-3.28-6.58-7.09-7.09L8.78,329.9c-2.73-.37-6.44,2.44-6.83,5.2C1.26,339.86.21,344.75,0,349.56A30.63,30.63,0,0,0,9.92,373c15.73,14.18,41.22,8.42,49.2-11.21,2.13-5.23,2.46-11.13,3.26-16.69.54-3.78-.94-7.61-5-8.72C54.1,335.49,49.26,337.54,48.71,341.35Z" />
            <path d="M143,481h56.54a7.2,7.2,0,0,0,7.09-7.09l0-66.62L206.69,301q0-12.22,0-24.47l-7.08,7.09L301,286.33q6.43.17,12.88.38c6.62.22,12.82.33,18.9-2.89,7.89-4.19,14.55-11.92,16.91-20.55A30.93,30.93,0,0,0,325,224.88c-4.44-.71-8.88-1.36-13.31-2-34.43-5.26-68.84-11.27-103.4-15.59a186.94,186.94,0,0,0-21.39-1.78c-4.18,0-9.94-1-13.77,1s-7.29,4.28-11.24,5.93a80.37,80.37,0,0,1-14.07,4.35,78.39,78.39,0,0,1-55.21-8.5c-2.81-1.62-5.14-2.75-8.39-2.75H76.37c-18.31.07-36.26,7.69-48.36,21.59-4,4.62-8,9.74-9.53,15.75q-1.73,6.9-3.46,13.8c-1.49,6-3.46,12-4.4,18.07-2.83,18.32-5.27,36.7-7.9,55.05q-.39,2.68-.77,5.37c-.72,5,1.86,8.3,6.83,9l46.76,6.25c2.73.37,6.44-2.44,6.84-5.2l7.67-53.41-13.92-1.89V473.91A7.2,7.2,0,0,0,63.22,481h56.54c9.12,0,9.13-14.18,0-14.18H63.22l7.09,7.09V289.82a7.08,7.08,0,0,0-6.15-7c-3.13-.37-7.27,1.55-7.77,5.08l-7.68,53.41,6.83-5.2L8.78,329.9l6.83,9q4-27.93,8-55.84a171.66,171.66,0,0,1,3.71-17.29L31.54,249c.37-1.47.62-3.07,1.13-4.5.07-.2.26-.47,0,.07-.48,1,.49-.64.5-.65.31-.47.59-1,.9-1.45a44.6,44.6,0,0,1,4.34-5.79,50.7,50.7,0,0,1,28.08-16.14c6.39-1.29,13.08-.88,19.57-.88l-3.57-1a93.64,93.64,0,0,0,97.77,0l-3.57,1c19.4,0,37,2.47,55.95,5.36l73.74,11.28,11.75,1.79c2.95.46,6.1.72,8.81,2a16.73,16.73,0,0,1,8.82,20.53c-2.4,7.11-9.56,12.35-17,12.13q-26.31-.76-52.62-1.47c-21.76-.57-43.56-1.62-65.33-1.72-.41,0-.81,0-1.22,0a7.16,7.16,0,0,0-7.09,7.08q0,33.32,0,66.62,0,53.13-.05,106.26,0,12.24,0,24.47l7.08-7.09H143c-9.12,0-9.13,14.18,0,14.18Z" />
            <path d="M316.09,279.35l2.07-47.13c.39-9.12-13.78-9.1-14.18,0q-1,23.57-2.06,47.13c-.4,9.12,13.77,9.1,14.17,0Z" />
            <path d="M143.08,481h56.54a7.19,7.19,0,0,0,7.08-7.09V276.56l-7.08,7.09,95.85,2.44,13.54.34c9.12.24,9.11-13.93,0-14.17l-95.86-2.44-13.53-.34a7.17,7.17,0,0,0-7.09,7.08V473.91l7.09-7.09H143.08c-9.12,0-9.14,14.18,0,14.18Z" />
            <path d="M131.37,67.68c-31.79.18-63.08,16.64-78.41,45-17.38,32.16-9.78,72.49,17.41,96.8,29.83,26.67,76,30.56,109.88,9.16,31.49-19.89,47.64-59.49,34.39-95.12-12.8-34.42-47.11-55.67-83.27-55.88-9.12-.05-9.13,14.12,0,14.17C158,82,184,95.44,197.1,119.07c14.83,26.66,8.07,59.7-14.32,80-25.2,22.88-64.61,25.36-93.15,7.34-26.63-16.81-39-49.89-27.71-79.54C72.68,98.77,102,82,131.37,81.85,140.48,81.8,140.5,67.63,131.37,67.68Z" />
            <path d="M176.75,150.13c-.18,18.49-11.64,36-29.26,42.46A46.08,46.08,0,0,1,96.15,178.8a44.53,44.53,0,0,1-10-24.71,38.81,38.81,0,0,1,1.11-13.77,24.13,24.13,0,0,1,4.56-8.79c5.26-5.89,11.89-8.73,20-10.54,9.46-2.12,19.59-2.27,29.36-1.47,9.24.75,18.63,2.8,26,8.32a24.79,24.79,0,0,1,7.1,8.9,31.58,31.58,0,0,1,1.79,5.63,36.69,36.69,0,0,1,.75,7.76c.08,9.11,14.25,9.13,14.17,0-.11-11.19-3.39-22.23-11.5-30.26-7.52-7.45-17.89-11.44-28.16-13.24a117.69,117.69,0,0,0-36.18-.54c-10.56,1.45-20.88,4.74-29.25,11.54C67.2,132.77,68.89,162.08,80.42,181A60.28,60.28,0,0,0,143,208.52c27.71-5.2,47.66-30.55,47.92-58.39C191,141,176.83,141,176.75,150.13Z" />
            <path d="M126.85,518.84V414.67c0-3.59-1.16-10.44,2-12.5s6.78.31,7,3.84c.11,1.46,0,3,0,4.45V518.84c0,9.12,14.17,9.14,14.17,0V411.4c0-1.76,0-3.52,0-5.28a19.08,19.08,0,0,0-12.29-17.73,18.77,18.77,0,0,0-23.2,9.43,23.13,23.13,0,0,0-1.88,10.1v56.57c0,17.78-.43,35.62,0,53.4,0,.31,0,.63,0,1,0,9.12,14.17,9.14,14.17,0Z" />
            <path d="M175.93,291.32H86.8l7.09,7.09V254.72L86.8,261.8h89.13l-7.09-7.08v43.69c0,9.12,14.18,9.13,14.18,0V254.72a7.2,7.2,0,0,0-7.09-7.09H86.8a7.2,7.2,0,0,0-7.09,7.09v43.69a7.19,7.19,0,0,0,7.09,7.08h89.13C185.05,305.49,185.06,291.32,175.93,291.32Z" />
            <path d="M333.64,514.18q1-6.61,2.08-13.22l5.67-36q4.2-26.61,8.39-53.23l10.23-65q5.61-35.56,11.21-71.14,5.67-35.91,11.32-71.82,5.28-33.48,10.55-66.95L402,80.52l6.42-40.75c1-6.45,2.06-12.9,3.05-19.35,0-.28.08-.56.13-.85.59-3.77-1-7.62-4.95-8.71-3.37-.93-8.12,1.14-8.72,5q-1,6.61-2.08,13.22l-5.67,36q-4.2,26.61-8.39,53.23l-10.23,65q-5.61,35.57-11.21,71.14-5.67,35.91-11.32,71.82-5.28,33.48-10.55,66.95l-8.88,56.34-6.42,40.75c-1,6.45-2.06,12.9-3,19.35,0,.28-.08.56-.13.85-.59,3.77,1,7.62,4.95,8.71,3.37.93,8.12-1.14,8.72-5Z" />
            <path d="M649.53,171.7c-35.51-9.73-72.09-3.37-107,5.59-34.08,8.74-68.39,20.44-104,20.15A124.27,124.27,0,0,1,380.63,183c1.08,2.67,2.17,5.34,3.25,8q13.39-78,26.21-156l-8.71,5c35.52,9.73,72.09,3.37,107.05-5.59,34.08-8.74,68.39-20.44,104-20.15A124.27,124.27,0,0,1,670.28,28.6c-1.08-2.67-2.17-5.34-3.25-8q-13.39,78-26.21,156.05c-.62,3.77,1,7.63,4.95,8.72,3.38.93,8.09-1.15,8.71-5q12.85-78.07,26.21-156.06c.52-3-.31-6.43-3.25-8A138.55,138.55,0,0,0,622.74.44c-17.91-1.39-36,.68-53.53,4.07-35.31,6.81-69.31,19.71-105,24.58-19.71,2.69-39.8,2.44-59.06-2.84-3.4-.93-8.09,1.16-8.71,4.95q-12.84,78.07-26.21,156.06c-.52,3,.31,6.43,3.25,8a138.55,138.55,0,0,0,54.7,15.92c17.91,1.4,35.95-.68,53.53-4.07,35.31-6.81,69.31-19.71,105-24.58,19.71-2.69,39.8-2.44,59.06,2.84C654.58,187.78,658.33,174.11,649.53,171.7Z" />
        </g>
    </g>
</svg>