<svg id="Ñëîé_1" data-name="Ñëîé 1" xmlns="http://www.w3.org/2000/svg" viewBox="0 0 4400.5 4394.56"><defs><style>.cls-1{fill:#fff;}.cls-2{fill:#141414;}.cls-3{fill:#d3dee2;}.cls-4{fill:none;stroke:#fff;stroke-linecap:round;stroke-miterlimit:10;stroke-width:40px;}</style></defs><path class="cls-1" d="M3402.8,1807c-34.48-99.62-78.8-197.48-141.69-282.59-17.62-23.84-36-47.19-56-69.13q-12.52-13.8-25.82-26.87-6.27-6.17-12.72-12.16c.14.13-6.5-5.33-6.49-6q7.26,10,3.84,3.2c-1.06-2.39-2.13-4.78-3.19-7.18-21.39-48.13-44.33-94.68-74.35-138.12-66.09-95.6-151.72-173.32-246.59-239.73-88.74-62.12-186.07-110.94-287.45-148.8-195.54-73-410.11-98.79-617.51-76.3-193.16,20.94-381.46,78.75-550.16,175.94-165.14,95.14-308.8,227.69-411.62,388.53q-18.3,28.62-34.66,58.4L1058.74,1442q-13.26-54.76-27.06-109.41c-7.44-29.69-13.06-60.58-24.44-89.07C981.58,1179.25,927,1116.62,850.89,1123c-42.81,3.57-77.4,23.34-102.06,58.53-18.33,26.14-25.34,58.82-27.61,90.09-2.33,32.19,5.13,65.39,10.86,96.92q9.21,50.58,23.25,100.11c10.53,37.34,23,74.12,36.95,110.29q5.25,13.6,10.78,27.09,1.85,4.5,3.71,9,4.25,10.13,8.52,20.22,4.23,9.94-.9-1.9c5.17,8.55,7.9,19.78,11.63,29.06q5.82,14.52,11.67,29v-35c-66.27,190-92.69,394.61-52.43,593.18,11.07,54.62,31,106.81,56.25,156.45l10.29-79.79a234.28,234.28,0,0,0-47.09,220.62c22.09,74,79.74,149,160.47,160.54l-39.35-30.26c32,61.63,87.62,119.82,159.8,129.77l-48.34-63.49c-14.59,144.08,35.66,296,122.55,410.75,74.93,99,173.14,176.9,285,230.53a1031.63,1031.63,0,0,0,199.49,71.72L1596,3392.9c5.71,112.77,97.21,211.5,212.61,214.13,102.41,2.33,199.38-80.19,220.85-178.85l-81,46c196.31,47.69,401.37,78.67,603.48,56.83,105.16-11.36,208.4-34.47,306.37-74.87,93.36-38.5,179-87.77,258.12-150.59,72.17-57.28,134.35-126.06,186.53-201.91A1049.92,1049.92,0,0,0,3381,2969.48q8.3-16.93,16-34.16c4.87-10.9,11.83-19.92,18.55-29.75q18.81-27.5,35.51-56.35c88.87-153.62,134.18-332.58,130.56-509.94-3.56-174.78-53.4-350.57-149.39-497.31q-17-26-36-50.7c-10.89-14.23-21.33-25.3-39.35-30.26-15.76-4.34-36.75-2.38-50.74,6.64-26.92,17.36-46,60.83-23.62,90.08a834.58,834.58,0,0,1,67,102q14.52,26.15,27.15,53.29,2.94,6.32,5.78,12.69c1.92,4.3,7.66,21.36,1.27,2.56,3.4,10,8,19.71,11.75,29.62a883,883,0,0,1,34.31,114.47q6.66,29.21,11.36,58.82c.82,5.18,1.1,10.73,2.37,15.81-.25-1-2.14-16.88-.76-5.61.25,2,.5,4,.74,6q1.93,15.9,3.29,31.86a925.06,925.06,0,0,1,2.36,122.34q-1.41,30.18-4.78,60.23c-.53,4.68-1.13,9.35-1.69,14-1,8.74,2-14.22.74-5.5-.3,2-.57,4-.86,6q-2.37,16-5.29,31.91a919,919,0,0,1-30.47,119.92q-9.54,29.12-21,57.54c-1,2.53-2.08,5.05-3.11,7.58-3.25,8,5.36-12.34,1.85-4.41-1.93,4.38-3.82,8.78-5.78,13.15q-6.75,15-14,29.75a886.15,886.15,0,0,1-62.83,107.34c-6.17,9-13.09,17.45-17.53,27.45q-8.17,18.38-17,36.46-16.68,34.14-35.78,67c-12.53,21.64-25.7,42.94-39.77,63.6q-9,13.16-18.38,26c-2.93,4-5.92,7.9-8.88,11.85-5.21,7,8-10.09,2.55-3.3-2.21,2.74-4.36,5.51-6.57,8.25a866.89,866.89,0,0,1-85.95,92.14q-23.92,22.17-49.46,42.54l-5,3.93c-9.64,7.67,3.34-2.39,3.31-2.53.26,1.2-10.14,7.63-11.84,8.89q-13.66,10.08-27.69,19.64a957,957,0,0,1-113.26,66.19q-14,7-28.29,13.5c-6.12,2.8-12.29,5.51-18.46,8.21-1.33.59-9.19,4-1.39.62,8.93-3.88-4.23,1.7-6,2.43q-34.42,13.89-69.82,25.23a1048.27,1048.27,0,0,1-143.42,34.9c-11.75,2-23.85,3-35.49,5.47.11,0,13.27-1.66,5.65-.79-3.16.36-6.32.79-9.48,1.16q-10.65,1.27-21.34,2.34-35.55,3.54-71.27,5a1389.3,1389.3,0,0,1-142.71-1.74q-36.89-2.28-73.63-6.28c-11.86-1.28-23.71-2.72-35.55-4.2-1.75-.22-10-1.37-.72-.07,9.78,1.38-.65-.1-3.08-.44q-9.47-1.32-18.91-2.74c-48.06-7.21-95.85-16.21-143.35-26.52q-35-7.61-69.76-16.11c-33.13-8-73.24,10.34-81,46a219.21,219.21,0,0,1-6.87,23.48q-2.73,7.08,3-7-1.56,3.45-3.28,6.83-2.59,5.07-5.53,10c-2,3.27-4.18,6.37-6.22,9.59-7.19,11.4,10.07-11.21,1-1.19-5.17,5.72-10.21,11.4-15.91,16.62-1.54,1.41-14.19,12.41-5.16,4.7,8.58-7.32-2.24,1.29-4.33,2.64-6.15,4-16.74,7.12-22,12q13.89-5.67,6.82-2.92c-1.8.7-3.61,1.37-5.44,2q-5.51,1.88-11.12,3.36c-2,.53-9.9.9-11.39,2.52q15.75-1.79,4.2-.69c-2.34.18-4.69.27-7,.27-4.66.06-9.25-.38-13.89-.56q-7.67-.77,6.12.8-4.52-.82-9-1.94c-4.48-1.12-8.79-2.72-13.22-4-12.57-3.51,11.09,6.35-1.41-.43-3.51-1.91-7-3.84-10.36-6-2-1.27-7.4-6.59-9.9-6.7q12,9.48,3.95,2.88l-3-2.61q-5.2-4.65-10-9.71c-2.75-2.89-5.26-6-7.91-8.93q-4.71-5.76,4.19,5.48c-1.56-2.13-3.07-4.31-4.52-6.52a191.34,191.34,0,0,1-11.59-20.68c-6.12-12.35,4.45,14.37.69,1.14-1.08-3.77-2.45-7.46-3.46-11.26s-1.68-7.66-2.54-11.49q-1.71-10.65.76,5.84-.36-3.91-.51-7.85c-1.44-28.42-19.37-56.38-48.34-63.5-27.79-6.82-55.31-14.73-82.41-23.92q-18.53-6.27-36.77-13.31c-6.08-2.35-12.13-4.79-18.17-7.23-13.24-5.36,14.4,6.28,1.32.57-3.59-1.56-7.17-3.12-10.74-4.71-50.88-22.72-99.69-50.28-144.8-83-5.2-3.77-10.19-8-15.49-11.55,17.17,11.69-.83-.84-4.81-4.1q-16.38-13.44-31.91-27.9a630,630,0,0,1-58-61.69c-1.63-2-3.22-4-4.85-6-9-10.86,9.21,12.44.81,1.13-3.85-5.18-7.71-10.35-11.43-15.62q-12.36-17.48-23.41-35.83-10.64-17.67-20-36.08-4.49-8.83-8.66-17.83-2.1-4.51-4.12-9.07c-1.08-2.43-2.14-4.88-3.19-7.33q5.64,13.44,2.79,6.46c-14.53-37.64-27.19-75.27-34.2-115.13-.72-4.06-2-8.57-2.07-12.68.12,17.34-.11-1.43-.51-5.46q-1.56-15.39-2.1-30.85a476.16,476.16,0,0,1,2.29-64.86c2.57-25.38-22.11-59.88-48.34-63.49a127.41,127.41,0,0,1-15.27-3q-3.84-1-7.59-2.29-7.74-2.88.35.47,8,3.54.42.09c-2.47-1.18-4.9-2.42-7.3-3.74-4.26-2.33-8.38-4.89-12.39-7.61-13.56-9.22,7.63,7.76-1.68-1.24-4.06-3.93-8.32-7.59-12.2-11.74-1.17-1.25-8.64-9.22-8.3-9.59q8.91,11.7,2.82,3.14-2.55-3.9-5.08-7.81c-8.2-12.93-14.27-28.41-25.17-39.32-13.73-13.72-31.46-17.38-49.49-21.4-13-2.89,11,6.46.1.38-1.28-.72-15-7.57-14.63-8.64q11.34,9.12,3.23,2.28l-3.17-3c-3.92-3.79-7.36-8-11.08-12-8.77-9.4,8.7,12.43-.67-.78q-4-5.65-7.64-11.57c-4.65-7.6-7.66-17.33-12.75-24.47q6,14.58,2.25,4.8-1.35-3.69-2.55-7.41c-1.19-3.72-2.28-7.48-3.24-11.27-1.29-5.05-2.21-10.14-3.23-15.24-2.73-13.64.85,16,.44,2.09-.27-9.11-.52-18-.07-27.12q1.05-10.71-1,5.92c.38-2.56.83-5.12,1.33-7.67q1.14-5.76,2.7-11.42c1-3.56,5.45-11.56,4.94-15q-6.27,14.34-1.9,4.71c.59-1.21,1.18-2.42,1.78-3.63a160.81,160.81,0,0,1,8.14-14.2q2.26-3.53,4.7-6.91-9.21,11.49-2.47,3.5c20.26-23.54,24.4-52,10.3-79.79-2.88-5.67-5.72-11.37-8.45-17.12-1.56-3.3-5-15.38-7.89-17.39,1,.67,5.72,14.33,1.1,2.49-1.17-3-2.37-5.93-3.51-8.91q-3.87-10.08-7.32-20.33c-8.43-25.05-14.56-50.68-19.43-76.64q-1.94-10.32-3.61-20.68-.84-5.17-1.61-10.35c-.34-2.25-1.87-13.45-.65-4.2,1.2,9.08-1.07-9.28-1.36-12q-1.43-12.95-2.46-25.93-3.31-41.43-2.82-83t4.41-82.91q1-10.35,2.16-20.67c.4-3.44.83-6.88,1.24-10.32,1.49-12.67-.39.09-.31,2-.54-13.76,4.54-30.11,7-43.64A1260.43,1260.43,0,0,1,951.73,1730c4.08-12.79,9.76-25.63,12.95-38.65,5.86-23.94-3.13-42.76-11.68-64-6.66-16.58-13.23-33.18-20.19-49.64-1.3-3.08-5.47-11.16,1,2.26-1.38-2.89-2.51-6-3.72-9q-4.14-10.12-8.13-20.3a1223.48,1223.48,0,0,1-48.35-150q-9.52-38.16-16.22-76.94-1.68-9.81-3.18-19.64c-1-6.9-1.27-27.3-.63-3.5-.25-9.2-1.28-18.13-.72-27.38.1-1.64.29-3.27.38-4.91.56-10.82-1,8.06-1.1,7.75-1-2.74,2-10,2.73-12.72,1.11-4.11,2.92-8,4-12.13-4.85,18.1-2.77,7.27,1.13.52,6.86-11.89-10.41,11.18-.86,1.53s-13.35,7.58-1.48,1c11.44-6.35-13.38,3.25-2.88.82,1-.24,5.25-1,6.4-1.69q-16.29,1.79-8.49,1.15c1.75-.17,3.5-.24,5.25-.24,1.35,0,6-.32,6.8.3-1.18-.9-17.5-4.55-6.15-.31,1.46.54,3.15,1,4.66,1.4,10.74,2.77-13.05-7.71-4-1.39,1.69,1.17,3.8,2.35,5.55,3.35,9.17,5.24-9.43-8.79-4.2-3.36,3.45,3.59,7.17,7,10.67,10.59s3.67,8.22-3.86-5.38c1.37,2.47,3.38,4.71,4.93,7.07q4.29,6.54,7.91,13.5c1.08,2.06,2,4.18,3.11,6.24,5.13,9.84-4.38-12.07-1.83-4.6,1.65,4.84,3.55,9.56,5,14.46,17.93,59.22,30.6,120.7,45.17,180.83,13.25,54.68,93.3,64.72,120.35,15.73A1047.23,1047.23,0,0,1,1125,1378.63c3.13-4.25,6.31-8.47,9.48-12.69,2.41-3.21,7.9-8.73-3.07,3.91,1.71-2,3.26-4.19,4.87-6.23q10.39-13.2,21.21-26,21.6-25.68,44.75-50a1120.14,1120.14,0,0,1,96.6-90c8.11-6.71,16.35-13.26,24.6-19.81,8.58-6.8-3,2.37-4,3,2.13-1.54,4.19-3.2,6.28-4.79q7.89-6,15.87-11.78,27.15-19.85,55.42-38.13A1241,1241,0,0,1,1512.37,1060q29.36-14.82,59.46-28.12c4.81-2.12,10-3.87,14.65-6.36-18,9.68.12,0,4.55-1.83q15.75-6.4,31.65-12.41a1343.09,1343.09,0,0,1,261.72-69.44q7.95-1.27,15.94-2.45c2.28-.34,21.32-3,9.21-1.35s7-.85,9.26-1.13q9-1.08,18-2,34.11-3.65,68.39-5.55a1332.58,1332.58,0,0,1,147.55-.08q37.92,2.12,75.67,6.43c6.09.7,12.17,1.48,18.25,2.22,9.21,1.11-13-1.86-3.83-.52,3.79.55,7.58,1.07,11.37,1.63q19.3,2.87,38.51,6.3a1298.35,1298.35,0,0,1,149,35.83q37.07,11.26,73.42,24.76,17.05,6.33,33.93,13.16c2.8,1.13,5.6,2.29,8.41,3.44,10.79,4.4-1.65-.63-3.17-1.37,6.76,3.33,13.92,6,20.8,9.08a1213.89,1213.89,0,0,1,134.09,70.23q31.74,19.24,62.22,40.49,14.75,10.27,29.15,21c2.55,1.9,5.08,3.83,7.63,5.73,13.22,9.85-7.42-6,.66.49,5.91,4.73,11.87,9.39,17.73,14.19,40.64,33.26,79,69.35,113.06,109.39q5.75,6.75,11.31,13.65c1.86,2.3,3.7,4.62,5.54,6.93,3.32,4.16,7,4.66-2.15-2.8,8.74,7.13,15.71,21.38,22,30.71a679.2,679.2,0,0,1,39.16,65.45c12.29,23.45,22.82,47.74,33.55,71.94,11.61,26.18,39.05,45.09,58.4,66q11.89,12.84,23.13,26.28c3.74,4.47,7.37,9,11,13.55,7.18,8.81-1.33-1.67-2.22-3,2.45,3.59,5.3,7,7.88,10.49,14.75,20,28.5,40.67,41.33,61.92q18.78,31.11,35,63.67,7.9,15.83,15.27,31.91,3.69,8.05,7.24,16.18c1.19,2.71,2.35,5.43,3.53,8.14q2.92,6.83-2.31-5.52,1.28,3.08,2.54,6.16c9.29,22.63,17.83,45.55,25.83,68.66,11.25,32.48,45.64,57.44,81,46C3389,1877.59,3414.86,1841.85,3402.8,1807Z"/><path class="cls-1" d="M1661.86,3230.06q-26.47-9.46-52.53-20-7.42-3-14.81-6.13l15.73,6.64q-6-2.52-11.89-5.1l-50.74,120.35c20.43,7.12,40.72,14.68,60.66,23.08l-15.73-6.63q9.33,3.95,18.57,8.14a49.06,49.06,0,0,0,24.48,7.81,67.63,67.63,0,0,0,65.61-31.44l6.63-15.72a66.24,66.24,0,0,0,0-35l-6.63-15.73a66.12,66.12,0,0,0-23.63-23.62c-25.3-11.53-51.11-22-77.24-31.56q-8.83-3.22-17.71-6.31a49.93,49.93,0,0,0-26.26-1.17,49.06,49.06,0,0,0-24.48,7.81l-13.33,10.3A49.39,49.39,0,0,0,1505,3237a32.75,32.75,0,0,0-4.5,16.62,49.9,49.9,0,0,0,1.18,26.25l6.64,15.73a66.17,66.17,0,0,0,23.62,23.62c25.51,11.1,51.24,21.71,77.31,31.43q8.8,3.27,17.65,6.43a49.79,49.79,0,0,0,26.25,1.18,49,49,0,0,0,24.48-7.81,73.61,73.61,0,0,0,30.26-39.35q1.19-8.76,2.36-17.51a65.64,65.64,0,0,0-9-33.23q-5.16-6.66-10.3-13.33A65.83,65.83,0,0,0,1661.86,3230.06Z"/><path class="cls-1" d="M1083.4,2620.52C982,2508.42,880.83,2388.89,849.82,2237.2c-25.31-120.39-23.34-242.52-2.08-362.28s61.81-237.15,113.66-348.05c191.77-420,648.24-662.17,1108.43-665.47,276.86-2.36,552.3,84.59,767.64,246.32q40.38,30.33,77.75,64.26c74.78,67.77,136.24,148,178,243.63,97,215.89,180.32,428.83,185.44,661.42q.49,30.82-.25,61.7a1525.23,1525.23,0,0,1-15.76,185.42q-10.89,62.59-25.81,124.45c-29.73,123.59-70.86,244.34-120,359.39-37.71,42.53-88.19,64.68-142.31,74.91s-111.86,8.55-164.08,3.4c-188.78-18.44-376.34-41-564.28-62.36q-94-10.65-188.14-20.69C1919.24,2787,1780.4,2772,1641.7,2756.07c-34.67-4-69.3-8.06-103.58-12.55a711.24,711.24,0,0,1-75.17-10.17c-108.61-21.06-214.35-51.92-314.74-96.57C1128.28,2630.75,1106.77,2625.28,1083.4,2620.52Z"/><path class="cls-2" d="M1096.44,2607.48c-74.15-82.05-147.8-167.25-194.14-268.73-51.28-112.31-59.26-243.9-49-365.4,10.59-126.18,45.3-249.81,93.12-366.73,39.34-96.18,87.9-188.09,151.6-270.47,118.07-152.69,277.69-269.83,453.91-347C1735,909,1937.37,872.33,2136.89,881c227.76,9.91,453.6,80.78,643,208.31,94.73,63.78,182.41,141.82,244.92,238.16,32.59,50.23,56.17,104.9,80,159.65,24.35,56,47.52,112.52,68.3,169.95,41.24,114,73.15,232.28,83.5,353.38,11,129.09.25,260.92-27.1,387.33-26.86,124.18-65.37,245.76-113.1,363.47-4.83,11.93-8.85,27.82-16.67,38.06-7.65,10-19.45,18.83-29.72,26-21.57,15-45.49,25.64-70.69,32.83-57.69,16.47-119,15.93-178.29,10.74-131.37-11.52-262.44-27.49-393.44-42.54-132.74-15.25-265.62-29.45-398.34-44.86-132.29-15.36-264.71-29.63-397-44.91-63.85-7.37-128.17-13.15-191.12-26.37a1529.75,1529.75,0,0,1-183.1-50c-28.34-9.74-56.4-20.36-84-32.1-27.82-11.85-56.14-19.21-85.76-25.34-23.16-4.8-33.06,30.74-9.8,35.55,15.58,3.23,31.08,6.83,46.43,11,16.52,4.49,31.62,11.19,47.4,17.74q43.74,18.13,88.71,33a1559.41,1559.41,0,0,0,183.63,48.4c66.35,13.4,134.6,18.87,201.81,26.58q100.45,11.52,201,22.64c271.47,30.39,542.78,62.52,814.39,91.74,66.65,7.17,133.77,16.47,200.8,18.93,58.79,2.15,120.09-2.37,175.17-24.5,25.95-10.42,49.84-24.25,71.17-42.41,11-9.38,21.58-19.05,27.27-32.49q9.78-23.08,19.14-46.33,35.7-89,64-180.75c39.18-127.37,67.53-257.65,75.29-390.89,7.47-128.34-3.74-255.1-35.21-379.81-30.87-122.28-77.71-239.81-128.25-355.11-24.11-55-48.55-109.14-82.38-159a767.67,767.67,0,0,0-111.68-129.93c-173.72-162.07-400-265.49-633.3-305.12-211.84-36-431.78-20.32-636.58,44.7-190.93,60.6-369.55,164-510.71,306.87-70.31,71.17-131.25,152.06-179.1,240C919.37,1560.3,874.66,1677,845.82,1795c-31.58,129.23-42.33,263.49-23,395.45,8.7,59.31,24,116.12,49.29,170.57,24.2,52.14,56,100.38,90.87,145.91,33.71,44,70.24,85.58,107.36,126.66C1086.31,2651.2,1112.32,2625.05,1096.44,2607.48Z"/><path class="cls-3" d="M1210.12,3033.61c-41-79-60.75-166.8-84.58-252.59-19.9-76.38-53.43-145.52-72-221.66a937.3,937.3,0,0,1-14.16-144.69,983.25,983.25,0,0,1,7.69-143.34c35.42-262,158.23-510,338.57-702a1278.28,1278.28,0,0,1,114.88-108.15c450.74-374.48,1181.88-387.12,1627.18-.26a712.41,712.41,0,0,1,86.56,103.75c50.92,73.94,89,156.49,118.88,242.07,10.19,28.41,19.44,57.16,27.86,86.06s16,57.94,22.92,86.92q17.28,66.42,28.66,134.22c22.89,135.44,28.77,274.08,20.44,411.68A1044.37,1044.37,0,0,1,3419.13,2644a1097.79,1097.79,0,0,1-112.19,325.93q-25.36,47.23-54.82,91.7c-91.66,136.74-218,242.3-372,313.86-334.95,155.11-693.5,98.26-1024.84,6.26a1101.57,1101.57,0,0,1-115.27-41.1q-26.16-11.52-51.39-24.66c-81.9-46.15-171-67.31-262.48-100.24-65.74-24.66-127-55.13-170.39-110.23C1238.32,3084.37,1223.36,3060,1210.12,3033.61Z"/><path class="cls-2" d="M1226,3024.3c-30-58.4-48.37-121.55-65.5-184.68-8.84-32.58-17-65.43-27.07-97.64-9.64-30.73-21-60.89-31.87-91.19-11.31-31.47-23.34-63.54-30.31-96.33-7.12-33.46-10-68.44-12-102.54a939,939,0,0,1,9.57-203.15c37.06-233,143-453.7,298-631.22,144.35-165.36,328.77-288.08,537.25-356.68,191.92-63.14,398.64-82.24,598.87-55,200.61,27.3,395.17,101.76,557.3,223.93,19.68,14.84,39.81,30.09,57.52,47.27,23.87,23.15,45.63,49,65.4,75.69,38.32,51.78,69.85,108.35,96.07,167.12,26.61,59.65,47.95,121.92,65.94,184.68,18.93,66,35.25,133.14,47.26,200.76,24.33,136.94,30.46,276.92,22.39,415.67a1067,1067,0,0,1-99.06,390.12c-51.75,110.27-121.11,211.51-211.11,294-85.45,78.36-187.05,139.16-295.34,180.25-242.58,92-505.93,79.28-755.79,26.35-62.21-13.18-123.91-28.68-185.21-45.57-64.84-17.87-126.08-43.35-185.59-74.4-56.72-29.59-117.76-49.34-178.41-69.09-56.84-18.52-114.52-36.77-165.63-68.57-50.64-31.5-85.92-77.1-112.64-129.83-10.73-21.17-42.55-2.53-31.84,18.61,28.63,56.5,67.52,105.5,121.11,140,52.28,33.7,112.18,53.42,170.9,72.6,63.1,20.6,126.94,40.36,185.52,72.14,60.1,32.59,125,57.09,190.84,75.17,250.29,68.69,514.19,115.42,772.86,68.8,242.11-43.64,467.36-172.73,613.08-372.8,79.6-109.31,137-236.36,170.52-367.15,35-136.66,40.79-279.27,33.54-419.67-7.36-142.39-33-282.64-72.49-419.55-36.82-127.71-87.53-254.75-167.68-361.8a735.69,735.69,0,0,0-65.47-76.56c-19-19.19-41.27-35.7-62.68-52.05a1111.53,1111.53,0,0,0-129.86-85.34c-91.61-51.46-190.34-90.49-292-116.87-203.08-52.71-418.39-56.07-623.59-13.24-205.62,42.93-401.26,134-561.69,270.23-189.83,161.18-332.47,378.25-405.35,616.34-38.37,125.32-57.87,257-48.74,388.05,2.48,35.61,5.59,72.52,13.79,107.32,7.7,32.7,19.34,64.59,30.73,96.14s23.25,63.26,33,95.53,17.87,65.11,26.76,97.65c17.34,63.38,36.79,126.39,66.92,185C1205.05,3064,1236.88,3045.39,1226,3024.3Z"/><path class="cls-1" d="M1682.44,3299.77c15.78-25.88,41.14-45.71,70.44-56.13,76.94-24.95,166.22,5.15,202.74,81,44.54,93.44-29.74,200.3-125.83,215.25-28.53,4.14-55.82-1.76-81.09-13.8-53.83-28.29-91.11-87.69-86.57-148.1"/><path class="cls-2" d="M1698.36,3309.08a125.31,125.31,0,0,1,7.81-11.34l-2.88,3.73a133.92,133.92,0,0,1,23.79-23.67l-3.73,2.89a142.19,142.19,0,0,1,31.38-18.24l-4.4,1.86a152.13,152.13,0,0,1,38.25-9.89l-4.9.66a178.64,178.64,0,0,1,47.45,0l-4.9-.66a174,174,0,0,1,43.77,11.9l-4.41-1.85a162.87,162.87,0,0,1,36.06,21l-3.73-2.88a155.52,155.52,0,0,1,27.69,27.65l-2.88-3.74a151.79,151.79,0,0,1,19.57,33.3l-1.86-4.41a136,136,0,0,1,9.44,34.38c-.22-1.63-.43-3.27-.65-4.9a137.23,137.23,0,0,1,0,36.16l.66-4.9a149.92,149.92,0,0,1-10.56,38.3l1.86-4.41a167.1,167.1,0,0,1-21.47,36.58l2.89-3.73a176.15,176.15,0,0,1-31.39,31.42l3.73-2.88a170.63,170.63,0,0,1-37.79,22.16l4.4-1.86a151.89,151.89,0,0,1-37.74,10.62l4.9-.66a130.05,130.05,0,0,1-34.7,0l4.9.66a151.74,151.74,0,0,1-38-10.64l4.4,1.86a141.74,141.74,0,0,1-30.85-18.41l3.74,2.88a170.31,170.31,0,0,1-30.41-30.41l2.88,3.73a165.17,165.17,0,0,1-21.36-36.51l1.86,4.41a149.88,149.88,0,0,1-10.41-38c.22,1.63.44,3.27.65,4.9a138.23,138.23,0,0,1-.83-28.1c.33-4.51-2.29-9.93-5.4-13s-8.44-5.61-13-5.4c-4.76.21-9.71,1.78-13,5.4l-2.89,3.73a18.44,18.44,0,0,0-2.51,9.31,134.9,134.9,0,0,0,.22,22.65,174.64,174.64,0,0,0,4.42,26.69,153.74,153.74,0,0,0,7.17,21.41,193.17,193.17,0,0,0,11.87,24.27,186.92,186.92,0,0,0,30.93,39.08,182.19,182.19,0,0,0,40.3,29.51,158,158,0,0,0,16.18,7.06c4.26,1.68,8.59,3.19,13,4.49a165.21,165.21,0,0,0,31,5.85c17.71,1.77,35.81-.27,52.94-5a182.29,182.29,0,0,0,41.66-17.35,192.63,192.63,0,0,0,65-60.91,181.75,181.75,0,0,0,19.75-39.72,163.84,163.84,0,0,0,8.9-43.35,151.7,151.7,0,0,0-3.68-44.75,134.5,134.5,0,0,0-6.31-20.09,177.56,177.56,0,0,0-11.24-23.49,187.89,187.89,0,0,0-14.52-20.91,154.45,154.45,0,0,0-13.84-15.42,176.87,176.87,0,0,0-36-27,188.18,188.18,0,0,0-41.47-17.25,195.21,195.21,0,0,0-90.26-3.46,158.1,158.1,0,0,0-46.17,16.35,165.54,165.54,0,0,0-23.35,15.75,133,133,0,0,0-17.31,16.24,153.6,153.6,0,0,0-16.27,21.79,18.92,18.92,0,0,0-1.86,14.2c1.18,4.28,4.48,8.92,8.47,11,4.28,2.26,9.46,3.4,14.21,1.86a19.62,19.62,0,0,0,11-8.47Z"/><path class="cls-2" d="M1612.15,2866.65c-116.56-124.72-170.78-282.28-176.05-443.86a847.73,847.73,0,0,1,10.56-161.86c42.88-255.25,182.5-486.91,402.73-643.19a1035.88,1035.88,0,0,1,141.82-84.37c352.46-176.07,784.37-148.41,1117,78.29A1107.19,1107.19,0,0,1,3244.12,1721c333.29,303.6,364.09,850.44,70.14,1210.72-365.62,445.81-1019.77,452-1458.75,150.24a1123,1123,0,0,1-154.39-123A909,909,0,0,1,1612.15,2866.65Z"/><path class="cls-2" d="M1625.19,2853.61c-73.81-79.37-124.83-176.76-150.56-281.91-27.25-111.39-26.57-229.09-3.61-341.16a977.2,977.2,0,0,1,104.65-282.11A966,966,0,0,1,1763.4,1711c83-76.49,179.18-137.3,282.26-182.93a1063.4,1063.4,0,0,1,301.57-82.72c104.47-12.61,211-10.58,314.8,6.91,104.46,17.6,206.55,49.93,301.67,96.63,103.29,50.73,196.63,117.62,279.93,196.85,66.24,63,120.74,137.27,162,218.82,40.56,80.23,67.54,167.13,81.46,255.89a896.35,896.35,0,0,1,1,269.48c-13.51,90.81-40.4,179.83-80.78,262.33-41.76,85.34-97.17,162.87-163.64,230.7a938.62,938.62,0,0,1-215.93,164.35c-77.54,42.92-160.84,74.57-247,95.25-85.5,20.53-173.32,29.95-261.22,29.26a1167.28,1167.28,0,0,1-263.68-32.48,1184.09,1184.09,0,0,1-249.51-90.2c-91.3-45.31-178.1-102.5-255-169.4-44.86-39-87.93-80.46-126.1-126.1-6.4-7.64-19.48-6.6-26.08,0-7.56,7.57-6.41,18.41,0,26.07,77.84,93.07,173.75,171.54,275.47,237.07,77.84,50.16,161.79,90.79,249,121.78a1228.55,1228.55,0,0,0,269,62.22,1150.61,1150.61,0,0,0,272.26-.27c90.89-11.08,180.28-32.74,265.41-66.66a995.73,995.73,0,0,0,243.58-139.25,952.57,952.57,0,0,0,199.39-210.93c54.66-79.44,96.2-168,123.29-260.54a944.45,944.45,0,0,0,37.73-280.62c-1.58-93.65-17.05-187.46-46.71-276.34-29.76-89.2-73.43-173.95-130.57-248.72-67.13-87.87-151.87-162.52-243.31-224.28a1126,1126,0,0,0-298.8-142.59,1139.64,1139.64,0,0,0-321.8-50,1126,1126,0,0,0-323.27,43.6c-110.81,31.92-217.63,81.28-313,146.15a1019.24,1019.24,0,0,0-234.86,221.36c-63.47,82.49-113.3,175-148.36,272.94-39.33,109.92-60.34,227.42-55.64,344.3,4.44,110.47,31.7,220.08,84.72,317.42a659.8,659.8,0,0,0,96.5,133.41C1615.31,2897.1,1641.34,2871,1625.19,2853.61Z"/><path class="cls-1" d="M1757.73,3329.5c-225.66-63.78-484.43-175.92-541.16-429.26a828.53,828.53,0,0,1-21.61-95c-10.87-64.22-15.26-129.77-16.89-192.44-22.7,18.88-55,32.76-62.61,63.69-20.55,77.78-19,156.31-.72,230.89a537.66,537.66,0,0,0,23.63,73.09c95.24,247.22,345.75,385.12,594.84,427.07"/><path class="cls-2" d="M1762.63,3311.72c-57.86-16.37-115.14-35.07-170.78-57.94l-5-2.06c-1.14-.48-7.17-3.09-1.57-.65-3.63-1.58-7.28-3.1-10.91-4.68q-10.39-4.53-20.69-9.26-21-9.69-41.61-20.35a794.22,794.22,0,0,1-77.66-45.85q-9.42-6.36-18.63-13-4.27-3.09-8.49-6.25c-1.4-1.05-2.8-2.1-4.2-3.17-.69-.53-1.38-1.07-2.08-1.59l1.65,1.27-1.66-1.29q-17.31-13.51-33.59-28.3-16.53-15-31.73-31.46-7.39-8-14.42-16.32-3.35-4-6.6-8-1.62-2-3.23-4.06c-.64-.81-1.25-1.65-1.92-2.45,1.36,1.63,2.14,2.79.35.44a430.84,430.84,0,0,1-46.41-75.8q-2.3-4.82-4.47-9.68-1.08-2.45-2.15-4.91c-.48-1.12-1.73-4.75.18.45-.37-1-.82-2-1.23-3q-4.32-10.55-8-21.32c-5.25-15.13-9.35-30.51-13.15-46.05-2.49-10.2-5.65-20.24-8.2-30.44s-5-20.73-7.14-31.16c-4.41-21.06-8-42.29-11-63.6-.21-1.54-.43-3.07-.63-4.61.54,4.09.08.55-.06-.48-.33-2.56-.66-5.13-1-7.69q-1-8.46-2-16.93-1.79-16.51-3.15-33.06-2.62-32-3.91-64.08-.66-15.78-1.07-31.56a18.57,18.57,0,0,0-11.33-16.85c-7.25-3.06-14.26-1-20.14,3.82-.81.66-1.63,1.31-2.44,2-3,2.45,3.52-2.62.39-.29-1.72,1.28-3.44,2.56-5.18,3.81-3.54,2.55-7.12,5-10.68,7.53a263.16,263.16,0,0,0-22.74,17.42,94,94,0,0,0-18.68,22.06c-5.51,9.25-8.21,19.55-10.68,29.92a473,473,0,0,0-11.54,145.47,528.29,528.29,0,0,0,30.61,140.8c13.52,36.95,29.73,72.93,49.79,106.8,37.12,62.69,85.92,118.35,142,164.74,56.49,46.74,119.57,84.89,186.55,114.58a983.08,983.08,0,0,0,210,66q12.9,2.51,25.85,4.69c9.47,1.61,20.31-2.49,22.67-12.87,2-8.92-2.7-21-12.87-22.68a980.37,980.37,0,0,1-204.84-57.58c-2.15-.87-4.29-1.74-6.43-2.63-1.1-.46-7.25-3.33-2-.82-4.16-2-8.51-3.65-12.74-5.51q-12.15-5.37-24.15-11.11-24.45-11.7-48.13-25a765.79,765.79,0,0,1-88.32-57.66l-2.73-2.08c-.34-.27-3.41-2.53-.85-.65s-.5-.4-.84-.67l-2.69-2.11q-5.39-4.25-10.68-8.6-10.12-8.32-19.94-17-19.61-17.41-37.77-36.34-18.55-19.35-35.39-40.24l-3.56-4.47-2.12-2.7c-2.53-3.22,2.58,3.37.09.11q-4.18-5.45-8.24-11-7.8-10.65-15.11-21.65-14.73-22.17-27.37-45.62-6.37-11.84-12.19-24-2.8-5.83-5.46-11.74-1.45-3.22-2.88-6.48l-.94-2.17-.93-2.18q-1.17-2.74.47,1.13c.05-1.78-2-4.91-2.72-6.59-.74-1.84-1.48-3.69-2.2-5.54-2.09-5.33-4.22-10.64-6.23-16q-6.09-16.23-11.14-32.84a512,512,0,0,1-15.84-68.63c-.39-2.47-.76-4.93-1.11-7.4-.11-.78-.93-5.78-.15-1-.24-1.47-.38-3-.56-4.45q-1.08-8.93-1.82-17.89-1.44-17.22-1.6-34.51t1-34.74q.55-8.34,1.42-16.66.43-4.18.95-8.34c.16-1.27.3-2.54.48-3.79-.71,4.81.28-1.83.41-2.69q2.61-17.56,6.61-34.9c1.22-5.28,2.45-10.59,4-15.8.31-1.05.65-2.09,1-3.13.52-1.45,2.28-3.95-.24.42,1.05-1.83,1.85-3.81,2.94-5.63s2.66-3.42,3.49-5.23c-1.42,3.11-2,2.5-.94,1.25.68-.8,1.34-1.62,2-2.41a97.21,97.21,0,0,1,9.13-8.91c1.63-1.42,3.32-2.77,5-4.12,3.08-2.49-3.48,2.57-.28.22l1.75-1.3c3.51-2.61,7.1-5.12,10.68-7.63,7.73-5.42,15.41-10.91,22.69-16.92l-31.47-13c2.34,88.74,9.82,178.16,31.57,264.45,2.54,10.05,5.78,20,8.09,30.07q2.76,12,6.21,23.93a420.84,420.84,0,0,0,15.56,44.32,445.39,445.39,0,0,0,44.17,82.07c35.44,51.52,80.62,94.82,131.09,131.46,49.39,35.85,103.57,64.76,159.45,89.09,57.27,24.92,116.29,45.44,176.19,63q10.41,3.06,20.87,6c9.27,2.62,20.48-3.22,22.68-12.88s-3-19.87-12.88-22.68Z"/><path class="cls-1" d="M1106.34,2232.73c114.12,27.59,146.06,171.75,146.64,275.71-3,85.38-35.23,167.4-96.3,224.45a81.23,81.23,0,0,1-41.2,11.2c-43.19.36-89.58-29.51-115.13-69.94-35.76-54-49.29-110.86-56.9-172.17-1.09-10.7-1.73-21.34-1.9-31.84s.09-20.85.82-31c8.33-76.63,45.9-160.57,118.72-195.8C1077.2,2235.58,1092.26,2232.28,1106.34,2232.73Z"/><path class="cls-2" d="M1101.44,2250.51a154.29,154.29,0,0,1,22.89,7.5l-4.4-1.86a149.92,149.92,0,0,1,32.85,19.19l-3.73-2.88a171.86,171.86,0,0,1,30.3,30.56l-2.88-3.73c12.38,16.05,22.19,33.91,30.09,52.55l-1.86-4.41c10.39,24.63,17.5,50.56,22.32,76.82q2.07,11.2,3.58,22.51l-.66-4.9q2.47,18.48,3.61,37.09c.78,12.57,1.33,25.21.61,37.79q-.79,14.06-2.68,28l.66-4.9a344.32,344.32,0,0,1-23.61,87.27l1.86-4.4a305.62,305.62,0,0,1-39.18,67.39l2.88-3.73a285.6,285.6,0,0,1-30.45,33.47l3.74-2.89a84.72,84.72,0,0,1-9.8,4.93l4.4-1.86a83.83,83.83,0,0,1-20.69,5.53l4.9-.66a96.65,96.65,0,0,1-24.39-.12l4.9.66a122.23,122.23,0,0,1-30.86-8.62l4.4,1.86a152.8,152.8,0,0,1-33-19.43l3.73,2.89a165,165,0,0,1-29.38-29.3l2.88,3.73c-14.48-18.85-26-40.38-35.29-62.2l1.86,4.4c-11.76-27.88-19.48-57.22-24.7-87-1.51-8.62-2.82-17.28-4-26,.22,1.63.43,3.26.65,4.9-3.49-26.06-4.73-53.23-1.27-79.36l-.66,4.91a312.3,312.3,0,0,1,21.3-79.08l-1.86,4.41a250.5,250.5,0,0,1,31.86-55.37l-2.88,3.73a196.8,196.8,0,0,1,34.72-35l-3.73,2.88a164.79,164.79,0,0,1,36.22-21.4l-4.4,1.86a103.57,103.57,0,0,1,25.07-7l-4.9.66a85.52,85.52,0,0,1,13.85-.75c9.65.26,18.88-8.67,18.44-18.44-.46-10.21-8.1-18.15-18.44-18.43-26.63-.72-52.51,9.93-74.38,24.48a204.58,204.58,0,0,0-48.08,44.56c-27.54,35.33-45.58,77.27-54.6,121.07a318.83,318.83,0,0,0-5.34,34.76,304.75,304.75,0,0,0-.44,42.84c1.32,26.82,5.6,53.75,11.3,80a394,394,0,0,0,23.77,73.8c10.33,23.77,23.47,46.83,39.95,66.88a171.76,171.76,0,0,0,55.76,44.49c21.77,10.75,46.59,17.57,71,14.74a102,102,0,0,0,22.27-4.68c8.52-3,17.29-6.67,23.91-13a280.53,280.53,0,0,0,23.15-24.86,317.26,317.26,0,0,0,39.86-61.15c21.91-44.41,33.88-92.94,36.58-142.33,1-17.71-.28-35.68-1.91-53.32a526.67,526.67,0,0,0-8.64-58.61c-7.63-36.54-20-73-39.59-105-19.35-31.5-46.69-59.25-81-74.1a179.3,179.3,0,0,0-28.71-10,19.38,19.38,0,0,0-14.21,1.86c-3.83,2.24-7.47,6.63-8.47,11C1086.4,2237.34,1091.42,2248.07,1101.44,2250.51Z"/><path class="cls-1" d="M1027.12,2345.33c-45.14-21.9-101.89-8.23-134.08,33.85-54.63,72.18-36.32,169.9,22.63,231.23,42.39,44.91,118.32,46.57,158.56.55"/><path class="cls-2" d="M1036.42,2329.41a120.94,120.94,0,0,0-31-10.52,125.61,125.61,0,0,0-32.55-2,130.47,130.47,0,0,0-87.29,42.52,164.39,164.39,0,0,0-20.43,28.71,173.58,173.58,0,0,0-20.85,60.51,196.17,196.17,0,0,0-2.22,33.89,212,212,0,0,0,3.91,33.6,191,191,0,0,0,7.86,28.36,230.62,230.62,0,0,0,14,31.45,202,202,0,0,0,16.1,25.11A215.22,215.22,0,0,0,906,2626.84a130,130,0,0,0,54.65,31.36,134.26,134.26,0,0,0,61.9,2.41,119.2,119.2,0,0,0,55.27-27.21,97.6,97.6,0,0,0,9.46-9.4c3.25-3.7,5.4-8,5.4-13,0-4.52-2-9.92-5.4-13s-8.13-5.62-13-5.4c-4.7.21-9.82,1.74-13,5.4a98.19,98.19,0,0,1-13.57,12.77l3.73-2.89a100.12,100.12,0,0,1-21.73,12.67l4.4-1.86a107.29,107.29,0,0,1-27.13,7.39l4.9-.66a114.36,114.36,0,0,1-30,0l4.9.66a115.48,115.48,0,0,1-29.25-8l4.4,1.86a111.33,111.33,0,0,1-24.39-14.18l3.73,2.88c-10.14-7.84-18.79-17.58-26.62-27.69q1.46,1.86,2.89,3.73a202.94,202.94,0,0,1-21.27-34.09q-2.55-5.18-4.8-10.48l1.86,4.41a193.31,193.31,0,0,1-11.62-37.78q-1.08-5.49-1.83-11l.66,4.9a174.09,174.09,0,0,1-.07-46.06l-.66,4.9a161.75,161.75,0,0,1,11.17-40.89l-1.86,4.41a160.16,160.16,0,0,1,20.2-34.77l-2.88,3.73a114.88,114.88,0,0,1,20.57-20.59l-3.73,2.89a114,114,0,0,1,25-14.57l-4.41,1.86a112.78,112.78,0,0,1,28.49-7.76l-4.9.66a108.67,108.67,0,0,1,28.6,0l-4.91-.66a104.62,104.62,0,0,1,26.39,7.2l-4.41-1.86c1.62.69,3.21,1.42,4.79,2.18a13.73,13.73,0,0,0,6.86,2.19,13.93,13.93,0,0,0,7.35-.33c4.28-1.18,8.91-4.49,11-8.48,2.26-4.27,3.39-9.46,1.86-14.2-1.41-4.36-4.19-8.95-8.48-11Z"/><path class="cls-1" d="M2108.33,1639.35c-151.8,42.65-282.08,135.59-381.41,254.55a797.43,797.43,0,0,0-88.12,128.79c-157.69,273.81-110.69,661,179.57,840.83a608.59,608.59,0,0,0,111.84,58.39c10.64,4,26.14-8.83,21.63-17.42-20.51-40.72-41.47-81.09-61.55-121.24a935.35,935.35,0,0,1-56.62-113.14c-63.59-154.7-85.81-324.73-55.37-489a766,766,0,0,1,33.36-121.2,854.6,854.6,0,0,1,48.3-116.87c57-112.94,140.94-212.37,257.48-283,3.07-2.3,2.18-6.42,2.74-10.16C2120.13,1642.93,2114.78,1640,2108.33,1639.35Z"/><path class="cls-1" d="M3303.48,2045.9a40.38,40.38,0,0,0-22.1-14.3c-24.34-5.84-39,5.79-30.33,37.37.27,1,.6,2,1,3,55.83,149.92,77.22,311.91,62.42,469.83-4.3,45.82,65.54,59.09,79.16,15C3446.28,2386.54,3418,2190.59,3303.48,2045.9Z"/><path class="cls-1" d="M3103.58,1834.23c14.18,35.38,33.59,73,70.43,92.85,10,4.13,24.11,7.62,30.87-1.57,16.13-18,11.85-41.68,1.79-62.47-11.36-21-22-38-36.56-55.67-14.74-16.39-45.79-39.18-63.61-17.63C3102.2,1797.78,3100.47,1811.66,3103.58,1834.23Z"/><path class="cls-1" d="M945.43,1782c-10.85-28.36-23.49-54.7-34.3-83.33q-8.77-21.9-17.61-43.82T876,1610.93c-41.59-97.14-72.66-196.57-87.45-304.19-7.14-45.49,5.45-106.41,55.14-116.87,60-11.74,98.25,50.33,109.79,101.46,18.16,72.35,36.39,144.21,53.25,216.07q5.05,21.55,9.94,43.12c11.72,55.6,25.41,110.38,38.23,165.87"/><path class="cls-2" d="M963.21,1777.07c-7.68-20-16.39-39.62-24.73-59.36l1.86,4.4c-17.93-42.54-33.9-85.91-51.85-128.44l1.86,4.4c-15.74-37.36-30-75.34-42.35-114a1112.37,1112.37,0,0,1-30.84-118.2q-6.78-33.54-11.37-67.5l.66,4.9a156.47,156.47,0,0,1,0-40.62l-.66,4.9a122.87,122.87,0,0,1,8.11-30.81l-1.86,4.4a86.24,86.24,0,0,1,10.69-18.61l-2.89,3.73a68.32,68.32,0,0,1,11.91-12l-3.73,2.89a62.71,62.71,0,0,1,13.09-7.67l-4.41,1.86a66.33,66.33,0,0,1,16.76-4.52l-4.9.66a74.59,74.59,0,0,1,19.29,0l-4.91-.66a72.09,72.09,0,0,1,17.53,4.85l-4.41-1.86a83.43,83.43,0,0,1,18.07,10.67l-3.73-2.88a112.86,112.86,0,0,1,19.42,19.71l-2.88-3.73a163.06,163.06,0,0,1,20.46,35.56l-1.86-4.4a188.07,188.07,0,0,1,9.66,29.35c3.63,15.19,7.58,30.31,11.39,45.46q11.57,46,23,92.13,11.43,46.46,22.32,93.06c7.11,30.64,13.59,61.43,20.69,92.08,8.07,34.83,16.51,69.59,24.56,104.43,2.18,9.4,13.48,15.85,22.68,12.88a18.85,18.85,0,0,0,12.88-22.68c-9.41-40.71-19.35-81.29-28.6-122-9.22-40.54-18.08-81.14-27.79-121.57-9.8-40.78-19.93-81.48-30.13-122.16-5-20.11-10.37-40.17-15.15-60.35a210.83,210.83,0,0,0-14.94-41.9,165.87,165.87,0,0,0-25-38.08C921.62,1194.68,910,1185,897,1179c-14.62-6.76-30.65-10.38-46.81-8.59a92.45,92.45,0,0,0-27.67,7.23,77.31,77.31,0,0,0-18.67,12c-11.1,9.24-19,21.87-24.55,35-5.93,14-9,28.63-10.37,43.79-1.33,14.36-.27,28.51,1.8,42.75,2.83,19.4,5.88,38.73,9.64,58a1103.05,1103.05,0,0,0,28.42,112.83c11.34,36.84,24.48,73.12,39,108.82q6,14.71,12.27,29.32l-1.86-4.4q11.55,29.1,23.29,58.13c7.63,19,14.95,38.07,22.88,56.91,4.81,11.44,9.74,22.83,14.57,34.27q-.92-2.2-1.85-4.4c3.65,8.65,7.21,17.35,10.58,26.12,1.77,4.61,4.07,8.44,8.47,11,4,2.31,9.78,3.29,14.21,1.86,8.75-2.83,16.57-13,12.88-22.68Z"/><path class="cls-2" d="M3062,1472.56a1573.9,1573.9,0,0,0-233.33-107.49c-82.37-29.89-168.2-53.66-255-66.15-89.07-12.81-179-14.56-268.74-9.63a1019.54,1019.54,0,0,0-200.32,31.21c-128.6,33.44-250.47,92-358.6,169.06-109.27,77.82-204.74,173.42-284.07,281.51A1279.83,1279.83,0,0,0,1278.76,2126q-7.71,23.31-14.46,46.92c-6.56,22.85,29,32.61,35.56,9.8,35.92-125.12,92-243.84,164.83-351.72,72.48-107.41,162-203.93,264.47-283.3,100.85-78.09,215.15-139.6,337-177.77,140.39-44,289.5-54.35,435.68-42.08,169.77,14.25,336.32,69.81,487.35,147.42q27.39,14.07,54.21,29.17c20.72,11.63,39.33-20.21,18.61-31.84Z"/><path class="cls-1" d="M1528.5,3033.27c-34.6-57.79-53.07-125.07-105.68-173.61-27.34-26.31-76.92-47.71-100.86-18.78-45.36,58.15,11.54,134,46.76,189.31,28.78,45.61,82.17,87.87,137.8,70.5,26.49-8.22,26.89-42.59,23-66.06A8.53,8.53,0,0,0,1528.5,3033.27Z"/><path class="cls-1" d="M1238.72,2118.57c3-23.1,12-44.93,22-65.43,5.27-11.38,10.84-22.85,16.22-34.33,13.43-28.71,25.58-57.56,28.61-85.72a111.47,111.47,0,0,0-.32-27.87c-.68-20-12.8-45.72-27.86-47.57-17.72-.9-35.55,19.85-51,34.49a278.43,278.43,0,0,0-22,24.52,316.6,316.6,0,0,0-48.45,86.34,340.21,340.21,0,0,0-11.86,38.24c-12.17,47.08-14.26,105.47,17.48,137.41,27.17,27.57,66.44-22.42,76.85-58.24A14.23,14.23,0,0,0,1238.72,2118.57Z"/><path class="cls-2" d="M1529.25,1437.66c-11.3-22-22-44.33-32.8-66.6s-21.73-44.81-33.26-66.88-23.59-43.61-36.92-64.51a551.28,551.28,0,0,0-46.18-62.66,386.91,386.91,0,0,0-53.54-51.75q-5.4-4.26-10.91-8.4a13.66,13.66,0,0,0-6.85-2.19,13.93,13.93,0,0,0-7.35.33c-4.28,1.18-8.91,4.48-11,8.47-2.26,4.28-3.4,9.46-1.86,14.21l1.86,4.4a18.55,18.55,0,0,0,6.61,6.62q2,1.5,4,3l-3.73-2.89A386.47,386.47,0,0,1,1354.8,1204q7.26,8.51,14.09,17.37l-2.88-3.73c10.79,14,20.83,28.56,30.25,43.51s18.33,30.43,26.8,46,16.53,31.44,24.41,47.36,15.66,32.07,23.44,48.14,15.49,31.91,23.52,47.73q1.48,2.92,3,5.84c2,4,6.79,7.31,11,8.47,4.41,1.22,10.29.67,14.2-1.86s7.41-6.31,8.48-11a20.17,20.17,0,0,0-1.86-14.2Z"/><path class="cls-2" d="M3550.14,1504.82a53.51,53.51,0,1,1,53.51-53.51A53.57,53.57,0,0,1,3550.14,1504.82Zm0-99.65a46.14,46.14,0,1,0,46.13,46.14A46.19,46.19,0,0,0,3550.14,1405.17Z"/><path class="cls-4" d="M2738.8,1935.15c170.09,69.49,289.95,180.59,289.95,431.68,0,257.42-208.68,466.1-466.11,466.1s-466.11-208.68-466.11-466.1c0-191.91,116-356.74,281.68-428.2"/><line class="cls-4" x1="2562.64" y1="2384.04" x2="2562.64" y2="1781.32"/></svg>